<?xml version="1.0" encoding="utf-8"?>
<!-- Generator: Adobe Illustrator 23.1.0, SVG Export Plug-In . SVG Version: 6.00 Build 0)  -->
<svg version="1.1"  xmlns="http://www.w3.org/2000/svg" xmlns:xlink="http://www.w3.org/1999/xlink" x="0px"
	 y="0px" viewBox="0 0 475.2 470.1" fill="#181818" style="enable-background:new 0 0 475.2 470.1;" xml:space="preserve">
<g>
	<path d="M254.5,11.8l-0.2,2.5l-5.8-0.4l0.2-2.5L254.5,11.8z"/>
	<path d="M272.3,21.5l-3.7-0.5l-4.6-8.8l-0.5-0.1l-1,8.1l-3-0.4L262,0l3.5,0.4c1.3,0.2,2.3,0.4,3.1,0.7c0.8,0.3,1.4,0.7,2,1.2
		c0.7,0.6,1.2,1.3,1.5,2.2c0.3,0.9,0.4,1.8,0.3,2.8c-0.2,1.4-0.7,2.6-1.7,3.5s-2.1,1.4-3.4,1.5L272.3,21.5z M264.8,9.6
		c1.3,0.2,2.4,0.1,3.1-0.3c0.4-0.2,0.8-0.6,1.1-1c0.3-0.4,0.4-0.9,0.5-1.4c0.1-0.5,0-0.9-0.1-1.4c-0.2-0.4-0.4-0.8-0.7-1.1
		c-0.3-0.3-0.7-0.5-1.2-0.7c-0.5-0.2-1-0.3-1.7-0.4l-1.1-0.1l-0.8,6.3L264.8,9.6z"/>
	<path d="M284.8,6.4l-1,4.7l7.6,1.6l-0.6,2.8l-7.6-1.6l-1.4,6.5l7.8,1.7l-0.6,2.8l-10.8-2.3L282.4,3l10.8,2.3l-0.6,2.8L284.8,6.4z"
		/>
	<path d="M300.7,23.1l-3.6,3.9l-3.1-1l15.9-17.3l2.6,23.2l-3.1-1l-0.5-5.3L300.7,23.1z M307.8,15.2l-5,5.5l5.8,1.8L307.8,15.2z"/>
	<path d="M325.6,15.7l3.8,1.7c0.8,0.3,1.5,0.7,2.1,1c0.6,0.3,1.2,0.7,1.6,1.1c0.5,0.4,0.9,0.8,1.3,1.2c0.4,0.4,0.7,0.9,1,1.4
		c0.8,1.3,1.2,2.8,1.3,4.3c0.1,1.5-0.3,3.1-0.9,4.6c-0.7,1.6-1.6,2.8-2.8,3.8c-1.2,1-2.5,1.6-4.1,2c-0.6,0.1-1.2,0.2-1.7,0.2
		c-0.5,0-1.1,0-1.7-0.1s-1.2-0.2-1.8-0.5c-0.6-0.2-1.4-0.5-2.2-0.9l-3.8-1.7L325.6,15.7z M322.7,33.1c1.1,0.5,2.1,0.8,2.9,0.9
		c0.8,0.1,1.7,0.1,2.5-0.1c1.1-0.2,2-0.7,2.8-1.4c0.8-0.7,1.5-1.6,2-2.7c0.5-1.1,0.7-2.2,0.7-3.3c0-1.1-0.3-2.1-0.9-3.1
		c-0.4-0.7-0.9-1.4-1.6-1.9c-0.7-0.5-1.6-1.1-2.7-1.5l-1.2-0.5l-5.7,13.1L322.7,33.1z"/>
	<path d="M361.8,32.2L359,49l14.5-9.1l-8.6,20.1l-2.6-1.7l5-11.1l-12.1,7.6l2.3-14l-8.4,8.9l-2.6-1.7L361.8,32.2z"/>
	<path d="M390.9,54.9c1.1,0.9,1.9,2,2.5,3.3c0.6,1.2,1,2.5,1.1,3.8c0.1,1.3,0,2.6-0.4,4c-0.4,1.3-1.1,2.5-2,3.6
		c-0.9,1.1-2,1.9-3.3,2.5c-1.2,0.6-2.5,0.9-3.9,1c-1.3,0.1-2.7-0.1-4-0.5c-1.3-0.4-2.5-1.1-3.7-2c-1.1-0.9-2-2.1-2.6-3.5
		s-1-2.8-1-4.3c-0.1-2.5,0.8-4.8,2.6-6.9c0.9-1.1,2-1.9,3.2-2.5c1.2-0.6,2.5-0.9,3.8-1c1.3-0.1,2.7,0.1,4,0.5
		C388.6,53.3,389.8,53.9,390.9,54.9z M389,57c-0.8-0.7-1.7-1.2-2.6-1.4c-0.9-0.3-1.9-0.4-2.8-0.3c-0.9,0.1-1.9,0.3-2.7,0.8
		c-0.9,0.4-1.7,1.1-2.4,1.9c-1.4,1.7-2.1,3.6-1.9,5.6c0.1,1,0.4,1.9,0.8,2.8c0.4,0.9,1,1.6,1.7,2.2c0.8,0.7,1.7,1.2,2.6,1.5
		c0.9,0.3,1.9,0.4,2.8,0.3c1-0.1,1.9-0.3,2.8-0.8s1.7-1.1,2.4-1.9s1.2-1.7,1.5-2.6c0.3-0.9,0.4-1.9,0.4-2.8
		c-0.1-0.9-0.3-1.9-0.7-2.7C390.5,58.5,389.9,57.7,389,57z"/>
	<path d="M399.2,91.3l-2.5-2.7l2-9.8l-0.4-0.4l-5.9,5.6l-2.1-2.2l14.5-13.8l2.4,2.6c0.9,0.9,1.6,1.8,2,2.5c0.4,0.7,0.7,1.4,0.8,2.2
		c0.1,0.9,0.1,1.8-0.2,2.7c-0.3,0.9-0.8,1.7-1.5,2.3c-1,1-2.2,1.5-3.5,1.6c-1.3,0.1-2.5-0.2-3.6-1L399.2,91.3z M400.9,77.4
		c0.9,1,1.8,1.6,2.6,1.7c0.5,0.1,1,0.1,1.4-0.1s0.9-0.4,1.3-0.8c0.3-0.3,0.6-0.7,0.8-1.2c0.2-0.4,0.2-0.9,0.1-1.3
		c-0.1-0.4-0.2-0.8-0.5-1.3c-0.2-0.4-0.6-0.9-1.1-1.4l-0.7-0.8l-4.6,4.4L400.9,77.4z"/>
	<path d="M418.4,87.5l-3.7,3l4.9,6.1l-2.2,1.8l-4.9-6.1l-5.2,4.2l5,6.3l-2.2,1.8l-6.9-8.6l15.6-12.5l6.9,8.6l-2.2,1.8L418.4,87.5z"
		/>
	<path d="M422.7,109.2l-2.1,1.5l-3.3-4.7l2.1-1.5L422.7,109.2z"/>
	<path d="M438.5,136.4l-2.3,1.2l-2.6-5.2l2.3-1.2L438.5,136.4z"/>
	<path d="M439.2,156.7l-1.5-3.4l5.3-8.5l-0.2-0.5l-7.5,3.2l-1.2-2.8l18.4-7.9l1.4,3.3c0.5,1.2,0.8,2.2,1,3c0.1,0.8,0.2,1.6,0,2.3
		c-0.2,0.9-0.6,1.7-1.2,2.4c-0.6,0.7-1.3,1.3-2.2,1.7c-1.3,0.6-2.6,0.7-3.8,0.3c-1.3-0.3-2.3-1.1-3.1-2.2L439.2,156.7z M445.6,144.2
		c0.5,1.3,1.1,2.1,1.8,2.5c0.4,0.3,0.9,0.4,1.4,0.4c0.5,0,1-0.1,1.5-0.3c0.4-0.2,0.8-0.5,1.1-0.8c0.3-0.4,0.5-0.8,0.6-1.2
		c0.1-0.4,0.1-0.9,0-1.4c-0.1-0.5-0.3-1-0.5-1.7l-0.4-1l-5.8,2.5L445.6,144.2z"/>
	<path d="M458.5,159.8l-4.6,1.5l2.4,7.4l-2.7,0.9l-2.4-7.4l-6.3,2.1l2.5,7.6l-2.7,0.9l-3.5-10.5l19-6.3l3.5,10.5l-2.7,0.9
		L458.5,159.8z"/>
	<path d="M452.2,182l-5.2-1.1l-0.7-3.2l22.9,5l-18.7,14l-0.7-3.2l4.3-3.1L452.2,182z M462.5,184.2l-7.3-1.5l1.3,5.9L462.5,184.2z"/>
	<path d="M471.1,199.7l0.5,4.2c0.1,0.9,0.2,1.6,0.2,2.3c0,0.7,0,1.4-0.1,2c-0.1,0.6-0.2,1.2-0.4,1.7c-0.2,0.5-0.4,1.1-0.7,1.6
		c-0.8,1.4-1.8,2.4-3.1,3.3c-1.3,0.8-2.8,1.3-4.5,1.5c-1.7,0.2-3.3,0-4.7-0.5s-2.7-1.4-3.8-2.6c-0.4-0.5-0.8-0.9-1.1-1.4
		s-0.6-1-0.8-1.5c-0.2-0.5-0.4-1.2-0.5-1.8c-0.1-0.7-0.3-1.4-0.4-2.3l-0.5-4.1L471.1,199.7z M454.6,206.1c0.1,1.2,0.4,2.2,0.7,3
		c0.3,0.8,0.8,1.5,1.4,2.1c0.7,0.8,1.6,1.4,2.7,1.7s2.1,0.5,3.3,0.3c1.2-0.1,2.3-0.5,3.2-1.1c0.9-0.6,1.7-1.4,2.2-2.3
		c0.4-0.7,0.7-1.5,0.8-2.4c0.1-0.9,0.1-1.9,0-3.1l-0.2-1.3l-14.2,1.7L454.6,206.1z"/>
	<path d="M475.2,239.3l-15.8,6.1l15.2,7.8l-21.7,2.8l0.1-3.1l12.1-1.4l-12.7-6.5l13.3-5.1l-12-2.7l0.1-3.1L475.2,239.3z"/>
	<path d="M470.5,275.9c-0.2,1.4-0.8,2.7-1.5,3.8c-0.8,1.1-1.7,2.1-2.8,2.9s-2.3,1.3-3.6,1.6c-1.3,0.3-2.7,0.4-4.1,0.1
		c-1.4-0.2-2.7-0.8-3.8-1.5c-1.1-0.8-2.1-1.7-2.9-2.8c-0.8-1.1-1.3-2.3-1.6-3.7c-0.3-1.4-0.3-2.8-0.1-4.2c0.2-1.4,0.8-2.8,1.7-4
		c0.9-1.3,1.9-2.3,3.2-3.1c2.1-1.3,4.5-1.8,7.3-1.3c1.4,0.2,2.7,0.8,3.8,1.5c1.1,0.8,2.1,1.7,2.8,2.8c0.8,1.1,1.3,2.3,1.6,3.7
		S470.7,274.5,470.5,275.9z M467.7,275.4c0.2-1,0.2-2-0.1-3c-0.2-1-0.6-1.8-1.2-2.6c-0.5-0.8-1.2-1.4-2.1-2
		c-0.8-0.5-1.8-0.9-2.8-1.1c-2.2-0.4-4.1,0-5.8,1.2c-0.8,0.6-1.4,1.3-2,2.1c-0.5,0.8-0.9,1.7-1,2.6c-0.2,1-0.2,2,0.1,3
		c0.2,1,0.6,1.8,1.2,2.6c0.5,0.8,1.2,1.4,2.1,2c0.8,0.5,1.8,0.9,2.8,1.1s2.1,0.2,3,0s1.8-0.6,2.6-1.1c0.8-0.5,1.4-1.2,2-2
		S467.5,276.4,467.7,275.4z"/>
	<path d="M443.2,301.5l1-3.5l9.4-3.2l0.1-0.5L446,292l0.8-2.9l19.2,5.5l-1,3.4c-0.4,1.3-0.7,2.2-1.1,2.9s-0.9,1.3-1.5,1.8
		c-0.7,0.6-1.5,1-2.4,1.1c-0.9,0.2-1.8,0.1-2.8-0.1c-1.4-0.4-2.4-1.1-3.2-2.2s-1.1-2.3-1-3.6L443.2,301.5z M456.1,295.9
		c-0.4,1.3-0.4,2.3-0.2,3.1c0.2,0.5,0.4,0.9,0.8,1.2c0.4,0.3,0.8,0.6,1.3,0.7c0.5,0.1,0.9,0.2,1.4,0.1c0.5-0.1,0.9-0.3,1.2-0.5
		c0.3-0.3,0.6-0.6,0.8-1.1c0.2-0.4,0.4-1,0.6-1.6l0.3-1l-6.1-1.7L456.1,295.9z"/>
	<path d="M456.2,316.1l-4.5-1.7l-2.8,7.3l-2.7-1l2.8-7.3l-6.2-2.4l-2.9,7.5l-2.7-1l3.9-10.3l18.7,7.1l-3.9,10.3l-2.7-1L456.2,316.1z
		"/>
	<path d="M439.7,330.8l-2.3-1.1l2.4-5.3l2.3,1.1L439.7,330.8z"/>
	<path d="M424.2,358.2l-2.1-1.4l3.1-4.9l2.1,1.4L424.2,358.2z"/>
	<path d="M407,369l2.2-3l10,0.3l0.3-0.4l-6.6-4.9l1.8-2.4l16.1,11.9l-2.1,2.8c-0.8,1-1.5,1.8-2.1,2.4s-1.3,0.9-2,1.2
		c-0.8,0.3-1.7,0.4-2.7,0.2c-0.9-0.2-1.8-0.5-2.6-1.1c-1.1-0.8-1.9-1.9-2.2-3.2s-0.2-2.5,0.3-3.8L407,369z M421.1,368.2
		c-0.8,1.1-1.2,2-1.2,2.8c0,0.5,0.1,1,0.3,1.4s0.6,0.8,1,1.1c0.4,0.3,0.8,0.5,1.3,0.5s0.9,0.1,1.3-0.1c0.4-0.1,0.8-0.4,1.2-0.7
		c0.4-0.3,0.8-0.8,1.2-1.3l0.6-0.9l-5.1-3.8L421.1,368.2z"/>
	<path d="M414.1,387.2l-3.6-3.2l-5.1,5.8l-2.1-1.9l5.1-5.8l-5-4.4l-5.3,6l-2.1-1.9l7.3-8.3l15,13.2l-7.3,8.3l-2.1-1.9L414.1,387.2z"
		/>
	<path d="M391.8,393l-1.7-5.1l2.4-2.2l7.3,22.3l-21.5-9l2.4-2.3l4.9,2.1L391.8,393z M395.2,403l-2.4-7.1l-4.4,4.1L395.2,403z"/>
	<path d="M386.2,418.4l-3.3,2.5c-0.7,0.5-1.3,1-1.9,1.3c-0.6,0.4-1.2,0.7-1.7,0.9c-0.6,0.2-1.1,0.4-1.7,0.5
		c-0.6,0.1-1.1,0.2-1.7,0.2c-1.6,0-3-0.3-4.4-1c-1.4-0.7-2.5-1.7-3.6-3.1c-1-1.4-1.7-2.8-2-4.3c-0.3-1.5-0.2-3,0.3-4.6
		c0.2-0.6,0.4-1.1,0.6-1.6c0.2-0.5,0.5-1,0.9-1.4c0.4-0.5,0.8-0.9,1.3-1.4c0.5-0.5,1.1-1,1.8-1.5l3.3-2.5L386.2,418.4z M372.3,407.4
		c-1,0.7-1.7,1.4-2.2,2.1c-0.5,0.7-0.9,1.4-1.1,2.3c-0.3,1-0.4,2.1-0.1,3.2s0.7,2.1,1.4,3c0.7,1,1.6,1.7,2.6,2.2s2,0.8,3.1,0.7
		c0.8,0,1.6-0.2,2.4-0.5c0.8-0.3,1.7-0.9,2.7-1.6l1.1-0.8l-8.7-11.4L372.3,407.4z"/>
	<path d="M354.1,441.9l-13.3-10.6l0.9,17.1l-13.4-17.3l2.7-1.4l7.3,9.8l-0.8-14.2l11.2,8.8l-3.7-11.7l2.8-1.5L354.1,441.9z"/>
	<path d="M320.1,456.4c-1.3,0.5-2.7,0.7-4.1,0.6s-2.7-0.4-3.9-0.9c-1.2-0.6-2.3-1.3-3.2-2.3c-1-1-1.7-2.2-2.2-3.5
		c-0.5-1.3-0.7-2.7-0.6-4.1s0.4-2.7,1-3.9c0.6-1.2,1.4-2.3,2.4-3.3s2.2-1.7,3.6-2.2c1.3-0.5,2.8-0.7,4.3-0.6
		c1.5,0.1,2.9,0.5,4.3,1.2c2.2,1.2,3.8,3,4.8,5.6c0.5,1.3,0.7,2.7,0.6,4c-0.1,1.4-0.4,2.7-1,3.9s-1.3,2.3-2.3,3.2
		C322.7,455.2,321.5,455.9,320.1,456.4z M319.2,453.7c1-0.4,1.8-0.9,2.5-1.6c0.7-0.7,1.3-1.5,1.7-2.3c0.4-0.9,0.6-1.8,0.7-2.8
		c0-1-0.1-2-0.5-3c-0.8-2.1-2.1-3.5-4-4.3c-0.9-0.4-1.8-0.6-2.8-0.6s-1.9,0.1-2.8,0.4c-1,0.4-1.8,0.9-2.6,1.6
		c-0.7,0.7-1.3,1.5-1.7,2.3c-0.4,0.9-0.6,1.8-0.7,2.8c0,1,0.1,2,0.5,3c0.4,1,0.9,1.9,1.6,2.6c0.7,0.7,1.4,1.3,2.3,1.7
		c0.9,0.4,1.8,0.6,2.8,0.7S318.2,454.1,319.2,453.7z"/>
	<path d="M284.3,445.9l3.6-0.9l7.6,6.5l0.5-0.1l-2-7.9l2.9-0.8l5,19.4l-3.4,0.9c-1.3,0.3-2.3,0.5-3.1,0.5c-0.8,0-1.6-0.1-2.3-0.3
		c-0.8-0.3-1.6-0.8-2.2-1.5c-0.6-0.7-1.1-1.5-1.3-2.5c-0.4-1.4-0.3-2.7,0.3-3.8s1.4-2.1,2.6-2.7L284.3,445.9z M295.7,454.2
		c-1.3,0.3-2.2,0.8-2.8,1.4c-0.3,0.4-0.5,0.8-0.6,1.3c-0.1,0.5-0.1,1,0,1.5c0.1,0.5,0.3,0.9,0.6,1.2c0.3,0.4,0.7,0.6,1.1,0.8
		c0.4,0.1,0.9,0.2,1.3,0.2c0.5,0,1.1-0.1,1.7-0.3l1-0.3l-1.6-6.1L295.7,454.2z"/>
	<path d="M278.2,464.5l-0.8-4.7l-7.7,1.3l-0.5-2.8l7.7-1.3l-1.1-6.6l-7.9,1.3l-0.5-2.8l10.9-1.8l3.3,19.7l-10.9,1.8l-0.5-2.8
		L278.2,464.5z"/>
	<path d="M257.2,457.7l-0.3-2.5l5.8-0.6l0.3,2.5L257.2,457.7z"/>
	<path d="M225.8,458.2l0.1-2.5l5.8,0.2l-0.1,2.5L225.8,458.2z"/>
	<path d="M207.7,448.9l3.7,0.4l4.8,8.7l0.5,0.1l0.8-8.1l3,0.3l-2.1,19.9l-3.5-0.4c-1.3-0.1-2.3-0.3-3.1-0.6c-0.8-0.3-1.4-0.6-2-1.1
		c-0.7-0.6-1.2-1.3-1.5-2.2c-0.3-0.9-0.5-1.8-0.4-2.8c0.1-1.4,0.7-2.6,1.6-3.5c0.9-0.9,2-1.5,3.4-1.6L207.7,448.9z M215.5,460.6
		c-1.4-0.1-2.4,0-3.1,0.4c-0.4,0.2-0.8,0.6-1,1c-0.3,0.4-0.4,0.9-0.5,1.4c0,0.5,0,0.9,0.2,1.4s0.4,0.8,0.7,1.1
		c0.3,0.3,0.7,0.5,1.2,0.7c0.5,0.2,1,0.3,1.7,0.3l1.1,0.1l0.7-6.3L215.5,460.6z"/>
	<path d="M195.6,464.2l0.9-4.7l-7.6-1.5l0.5-2.8l7.6,1.5l1.3-6.5l-7.9-1.5l0.5-2.8l10.8,2.1l-3.8,19.7l-10.8-2.1l0.5-2.8
		L195.6,464.2z"/>
	<path d="M179.3,447.9l3.5-4l3.1,0.9l-15.5,17.6l-3.2-23.1l3.2,0.9l0.6,5.3L179.3,447.9z M172.4,456l4.9-5.6l-5.8-1.7L172.4,456z"/>
	<path d="M154.6,455.9l-3.9-1.6c-0.8-0.3-1.5-0.7-2.1-1c-0.6-0.3-1.2-0.7-1.7-1.1c-0.5-0.4-0.9-0.8-1.3-1.2s-0.7-0.9-1-1.4
		c-0.8-1.3-1.3-2.8-1.4-4.3c-0.1-1.5,0.2-3.1,0.8-4.6c0.7-1.6,1.6-2.9,2.7-3.9c1.1-1,2.5-1.7,4.1-2.1c0.6-0.1,1.2-0.2,1.7-0.3
		c0.5,0,1.1,0,1.7,0c0.6,0.1,1.2,0.2,1.9,0.4c0.7,0.2,1.4,0.5,2.2,0.8l3.8,1.6L154.6,455.9z M157.1,438.4c-1.1-0.5-2.1-0.8-3-0.9
		c-0.8-0.1-1.7-0.1-2.5,0.2c-1.1,0.3-2,0.8-2.8,1.5c-0.8,0.7-1.4,1.7-1.9,2.7c-0.5,1.1-0.7,2.2-0.6,3.3c0.1,1.1,0.4,2.1,0.9,3
		c0.4,0.7,1,1.3,1.7,1.9c0.7,0.5,1.6,1,2.7,1.5l1.2,0.5l5.4-13.2L157.1,438.4z"/>
	<path d="M118,440.2l2.4-16.8l-14.2,9.4l8.2-20.3l2.6,1.6l-4.7,11.3l11.9-7.9l-2,14.1l8.2-9.1l2.6,1.6L118,440.2z"/>
	<path d="M88.4,418.2c-1.1-0.9-2-2-2.6-3.2c-0.6-1.2-1-2.5-1.1-3.8c-0.1-1.3,0-2.6,0.4-4c0.4-1.3,1-2.5,1.9-3.7c0.9-1.1,2-2,3.2-2.6
		c1.2-0.6,2.5-1,3.8-1.1c1.3-0.1,2.7,0,4,0.4s2.6,1,3.7,2c1.1,0.9,2,2,2.7,3.4c0.7,1.4,1.1,2.8,1.1,4.3c0.1,2.5-0.7,4.8-2.4,7
		c-0.9,1.1-2,2-3.2,2.6c-1.2,0.6-2.5,1-3.8,1.1c-1.3,0.1-2.7,0-4-0.4C90.7,419.7,89.5,419.1,88.4,418.2z M90.2,416
		c0.8,0.7,1.7,1.1,2.6,1.4c0.9,0.3,1.9,0.4,2.8,0.3c0.9-0.1,1.9-0.4,2.7-0.8c0.9-0.5,1.7-1.1,2.3-1.9c1.4-1.7,2-3.6,1.7-5.6
		c-0.1-1-0.4-1.9-0.9-2.7c-0.5-0.9-1.1-1.6-1.8-2.2c-0.8-0.7-1.7-1.1-2.7-1.4c-1-0.3-1.9-0.4-2.9-0.3c-1,0.1-1.9,0.4-2.7,0.8
		c-0.9,0.5-1.6,1.1-2.3,1.9c-0.7,0.8-1.1,1.7-1.4,2.7c-0.3,1-0.4,1.9-0.3,2.8c0.1,0.9,0.3,1.9,0.8,2.7
		C88.7,414.6,89.4,415.3,90.2,416z"/>
	<path d="M79.3,381.9l2.6,2.6l-1.8,9.8l0.4,0.4l5.8-5.8l2.1,2.1l-14.2,14.1l-2.5-2.5c-0.9-0.9-1.6-1.7-2-2.4
		c-0.4-0.7-0.7-1.4-0.9-2.2c-0.2-0.9-0.1-1.8,0.2-2.7c0.3-0.9,0.8-1.7,1.5-2.4c1-1,2.2-1.6,3.5-1.7c1.3-0.1,2.5,0.2,3.7,0.9
		L79.3,381.9z M77.9,395.9c-1-1-1.8-1.5-2.6-1.7c-0.5-0.1-1,0-1.4,0.1c-0.5,0.2-0.9,0.4-1.3,0.8c-0.3,0.3-0.6,0.7-0.7,1.2
		c-0.1,0.4-0.2,0.9-0.1,1.3c0.1,0.4,0.3,0.8,0.5,1.3c0.3,0.4,0.6,0.9,1.1,1.4l0.8,0.8l4.5-4.5L77.9,395.9z"/>
	<path d="M60.2,386.1l3.7-3.1l-5-6l2.2-1.8l5,6l5.1-4.3l-5.1-6.1l2.2-1.8l7.1,8.5L60,390.3l-7.1-8.5l2.2-1.8L60.2,386.1z"/>
	<path d="M55.4,364.6l2.1-1.5l3.4,4.7l-2.1,1.5L55.4,364.6z"/>
	<path d="M39,337.8l2.2-1.2l2.7,5.1l-2.2,1.2L39,337.8z"/>
	<path d="M37.8,317.5l1.5,3.4l-5.1,8.6l0.2,0.5l7.5-3.4l1.3,2.8L25,337.6l-1.5-3.2c-0.5-1.2-0.9-2.2-1.1-3c-0.2-0.8-0.2-1.6-0.1-2.3
		c0.1-0.9,0.5-1.7,1.1-2.4s1.3-1.3,2.2-1.7c1.3-0.6,2.6-0.7,3.8-0.4c1.3,0.3,2.3,1,3.1,2.1L37.8,317.5z M31.7,330.1
		c-0.6-1.2-1.2-2.1-1.9-2.5c-0.4-0.2-0.9-0.4-1.4-0.4c-0.5,0-1,0.1-1.5,0.3c-0.4,0.2-0.8,0.5-1.1,0.8c-0.3,0.4-0.5,0.8-0.6,1.2
		c-0.1,0.4-0.1,0.9,0,1.4c0.1,0.5,0.3,1,0.6,1.7l0.4,1l5.8-2.6L31.7,330.1z"/>
	<path d="M18.5,314.8l4.5-1.6l-2.6-7.3l2.7-1l2.6,7.3L32,310l-2.7-7.5l2.7-1l3.7,10.4l-18.9,6.7l-3.7-10.4l2.7-1L18.5,314.8z"/>
	<path d="M24.3,292.5l5.3,1l0.8,3.1l-23-4.5l18.3-14.4l0.8,3.2l-4.2,3.2L24.3,292.5z M13.9,290.6l7.3,1.4l-1.5-5.9L13.9,290.6z"/>
	<path d="M4.9,275.2L4.3,271c-0.1-0.9-0.2-1.6-0.2-2.3c0-0.7,0-1.4,0.1-2c0.1-0.6,0.2-1.2,0.4-1.7c0.2-0.5,0.4-1.1,0.7-1.6
		c0.7-1.4,1.7-2.5,3-3.3c1.3-0.8,2.7-1.4,4.4-1.6c1.7-0.2,3.3-0.1,4.7,0.4c1.4,0.5,2.7,1.3,3.9,2.5c0.4,0.4,0.8,0.9,1.1,1.3
		c0.3,0.5,0.6,0.9,0.8,1.5c0.2,0.5,0.4,1.1,0.6,1.8c0.2,0.7,0.3,1.4,0.4,2.3l0.6,4.1L4.9,275.2z M21.3,268.5c-0.2-1.2-0.4-2.2-0.8-3
		s-0.8-1.5-1.4-2.1c-0.8-0.8-1.7-1.3-2.7-1.7s-2.2-0.4-3.3-0.2c-1.2,0.2-2.2,0.6-3.2,1.2C9,263.3,8.3,264,7.8,265
		c-0.4,0.7-0.7,1.5-0.8,2.4c-0.1,0.9-0.1,1.9,0.1,3.1l0.2,1.3l14.2-2L21.3,268.5z"/>
	<path d="M0,235.8l15.7-6.5l-15.4-7.5l21.6-3.3l-0.1,3.1l-12.1,1.6l12.8,6.2l-13.2,5.4l12,2.5l-0.1,3.1L0,235.8z"/>
	<path d="M3.9,199.1c0.2-1.4,0.7-2.7,1.4-3.9c0.7-1.2,1.6-2.1,2.7-2.9c1.1-0.8,2.3-1.4,3.6-1.7c1.3-0.4,2.7-0.4,4.1-0.2
		s2.7,0.7,3.9,1.4c1.2,0.7,2.1,1.6,2.9,2.7c0.8,1.1,1.3,2.3,1.7,3.7c0.3,1.3,0.4,2.7,0.2,4.2c-0.2,1.4-0.7,2.8-1.6,4.1
		c-0.8,1.3-1.9,2.3-3.1,3.2c-2.1,1.4-4.5,1.9-7.2,1.5c-1.4-0.2-2.7-0.7-3.8-1.4c-1.2-0.7-2.1-1.7-2.9-2.7c-0.8-1.1-1.3-2.3-1.7-3.6
		C3.7,201.9,3.7,200.5,3.9,199.1z M6.7,199.5c-0.2,1-0.1,2,0.1,3c0.3,0.9,0.7,1.8,1.2,2.6c0.6,0.8,1.3,1.4,2.1,1.9
		c0.8,0.5,1.8,0.9,2.8,1c2.2,0.3,4.1-0.1,5.7-1.4c0.8-0.6,1.4-1.3,1.9-2.1c0.5-0.8,0.8-1.7,1-2.6c0.2-1,0.1-2.1-0.1-3
		c-0.2-1-0.7-1.8-1.2-2.6s-1.3-1.4-2.1-1.9s-1.8-0.8-2.9-1c-1-0.2-2.1-0.1-3,0.1c-1,0.2-1.8,0.6-2.6,1.2c-0.8,0.6-1.4,1.2-1.9,2.1
		S6.9,198.5,6.7,199.5z"/>
	<path d="M30.5,172.8l-0.9,3.6l-9.4,3.4l-0.1,0.5l7.9,2.1l-0.8,2.9l-19.4-5.1l0.9-3.4c0.3-1.3,0.7-2.2,1.1-3
		c0.4-0.7,0.8-1.3,1.4-1.8c0.7-0.6,1.5-1,2.4-1.2c0.9-0.2,1.8-0.2,2.8,0.1c1.4,0.4,2.5,1.1,3.2,2.1c0.8,1,1.1,2.2,1.1,3.6
		L30.5,172.8z M17.8,178.7c0.3-1.3,0.4-2.4,0.1-3.1c-0.2-0.5-0.4-0.9-0.8-1.2c-0.4-0.3-0.8-0.6-1.3-0.7c-0.5-0.1-0.9-0.1-1.4,0
		c-0.5,0.1-0.9,0.3-1.2,0.6c-0.3,0.3-0.6,0.6-0.8,1.1s-0.4,1-0.6,1.7l-0.3,1l6.1,1.6L17.8,178.7z"/>
	<path d="M17.2,158.5l4.5,1.6l2.6-7.3l2.7,1l-2.6,7.3l6.3,2.2l2.7-7.5l2.7,1l-3.7,10.4l-18.8-6.7l3.7-10.4l2.7,1L17.2,158.5z"/>
	<path d="M33.4,143.4l2.3,1l-2.3,5.3l-2.3-1L33.4,143.4z"/>
	<path d="M48.2,115.7l2.2,1.3l-3,4.9l-2.2-1.3L48.2,115.7z"/>
	<path d="M65.2,104.5l-2.1,3l-10-0.1l-0.3,0.4l6.7,4.7l-1.7,2.5l-16.4-11.5l2-2.9c0.7-1.1,1.4-1.9,2-2.4c0.6-0.5,1.3-1,2-1.2
		c0.8-0.3,1.7-0.4,2.7-0.3c0.9,0.1,1.8,0.5,2.6,1c1.2,0.8,1.9,1.9,2.3,3.1s0.3,2.5-0.3,3.8L65.2,104.5z M51.2,105.6
		c0.8-1.1,1.2-2.1,1.2-2.9c0-0.5-0.1-1-0.4-1.4c-0.2-0.4-0.6-0.8-1-1.1c-0.4-0.3-0.8-0.5-1.3-0.5s-0.9,0-1.3,0.1
		c-0.4,0.2-0.8,0.4-1.1,0.7c-0.4,0.3-0.7,0.8-1.1,1.3l-0.6,0.9l5.2,3.6L51.2,105.6z"/>
	<path d="M57.7,86.5l3.7,3.1l5-5.9l2.2,1.8l-5,5.9l5.1,4.3l5.2-6.1l2.2,1.8l-7.1,8.5L53.6,86.9l7.1-8.5l2.2,1.8L57.7,86.5z"/>
	<path d="M79.9,80.1l1.8,5l-2.3,2.3l-7.8-22.1l21.7,8.5l-2.4,2.3l-4.9-2L79.9,80.1z M76.3,70.2l2.5,7l4.3-4.2L76.3,70.2z"/>
	<path d="M84.9,54.7l3.3-2.6c0.7-0.5,1.3-1,1.9-1.4c0.6-0.4,1.2-0.7,1.7-0.9c0.6-0.2,1.1-0.4,1.7-0.6c0.5-0.1,1.1-0.2,1.7-0.2
		c1.6-0.1,3,0.2,4.4,0.9s2.6,1.7,3.6,3c1.1,1.3,1.8,2.8,2.1,4.2c0.3,1.5,0.3,3-0.2,4.6c-0.2,0.6-0.4,1.1-0.6,1.6
		c-0.2,0.5-0.5,1-0.9,1.5s-0.8,0.9-1.3,1.4s-1.1,1-1.8,1.5l-3.2,2.6L84.9,54.7z M99.1,65.4c1-0.8,1.7-1.5,2.2-2.2
		c0.5-0.7,0.9-1.4,1.1-2.3c0.3-1,0.3-2.1,0.1-3.2c-0.2-1.1-0.7-2.1-1.5-3c-0.7-0.9-1.6-1.6-2.6-2.1s-2-0.7-3.1-0.7
		c-0.8,0-1.6,0.2-2.4,0.6c-0.8,0.4-1.7,0.9-2.6,1.7L89.1,55L98,66.2L99.1,65.4z"/>
	<path d="M116.4,30.4L130,40.6l-1.3-17l13.8,17l-2.7,1.5l-7.5-9.6l1.1,14.2L122,38.1l4,11.6l-2.7,1.5L116.4,30.4z"/>
	<path d="M150.1,15.2c1.3-0.5,2.7-0.8,4.1-0.7c1.4,0,2.7,0.3,3.9,0.9c1.2,0.5,2.3,1.3,3.3,2.2s1.7,2.1,2.3,3.5
		c0.5,1.3,0.8,2.7,0.7,4.1c0,1.4-0.3,2.7-0.9,3.9s-1.3,2.3-2.3,3.3s-2.2,1.7-3.5,2.3c-1.3,0.5-2.8,0.8-4.3,0.7
		c-1.5-0.1-3-0.4-4.3-1.1c-2.3-1.1-3.9-2.9-4.9-5.5c-0.5-1.3-0.8-2.7-0.7-4c0.1-1.4,0.4-2.7,0.9-3.9c0.5-1.2,1.3-2.3,2.3-3.3
		C147.6,16.5,148.7,15.7,150.1,15.2z M151.1,17.8c-1,0.4-1.8,0.9-2.5,1.6c-0.7,0.7-1.2,1.5-1.6,2.3c-0.4,0.9-0.6,1.8-0.6,2.8
		c0,1,0.2,2,0.6,3c0.8,2.1,2.2,3.5,4.1,4.2c0.9,0.4,1.8,0.6,2.8,0.6c1,0,1.9-0.2,2.7-0.5c1-0.4,1.8-0.9,2.5-1.6
		c0.7-0.7,1.2-1.5,1.6-2.4c0.4-0.9,0.6-1.8,0.6-2.8c0-1-0.2-2-0.6-3c-0.4-1-0.9-1.8-1.6-2.5c-0.7-0.7-1.5-1.3-2.3-1.7
		s-1.8-0.6-2.8-0.6C153,17.3,152.1,17.4,151.1,17.8z"/>
	<path d="M186.2,24.9l-3.6,1l-7.7-6.3l-0.5,0.1l2.2,7.9l-2.9,0.8l-5.4-19.3l3.4-1c1.3-0.4,2.3-0.5,3.1-0.6c0.8,0,1.6,0.1,2.3,0.3
		c0.8,0.3,1.6,0.8,2.2,1.5c0.6,0.7,1.1,1.5,1.4,2.4c0.4,1.4,0.3,2.7-0.2,3.9c-0.5,1.2-1.4,2.1-2.6,2.7L186.2,24.9z M174.6,16.9
		c1.3-0.4,2.2-0.9,2.7-1.5c0.3-0.4,0.5-0.8,0.6-1.3c0.1-0.5,0.1-1-0.1-1.5c-0.1-0.5-0.4-0.9-0.7-1.2s-0.7-0.6-1.1-0.8
		c-0.4-0.1-0.9-0.2-1.3-0.2c-0.5,0-1.1,0.1-1.7,0.3l-1,0.3l1.7,6.1L174.6,16.9z"/>
	<path d="M191.8,6.2l0.9,4.7l7.6-1.5l0.5,2.8l-7.6,1.5l1.2,6.5l7.9-1.5l0.5,2.8L192,23.6l-3.7-19.7l10.8-2.1l0.5,2.8L191.8,6.2z"/>
	<path d="M213,12.5l0.3,2.5l-5.7,0.7l-0.3-2.5L213,12.5z"/>
</g>
</svg>
