<?xml version="1.0" encoding="utf-8"?>
<!-- Generator: Adobe Illustrator 26.0.0, SVG Export Plug-In . SVG Version: 6.00 Build 0)  -->
<svg version="1.1" id="publicdomainvectors.org" xmlns="http://www.w3.org/2000/svg" xmlns:xlink="http://www.w3.org/1999/xlink"
	 x="0px" y="0px" viewBox="0 0 559 451" style="enable-background:new 0 0 559 451;" xml:space="preserve">
<style type="text/css">
	.st0{fill-rule:evenodd;clip-rule:evenodd;fill:#FFE600;}
	.st1{fill-rule:evenodd;clip-rule:evenodd;fill:#282828;}
	.st2{fill-rule:evenodd;clip-rule:evenodd;fill:#564843;}
	.st3{fill-rule:evenodd;clip-rule:evenodd;fill:#BEAEA9;}
	.st4{fill-rule:evenodd;clip-rule:evenodd;fill:#A2918A;}
	.st5{fill-rule:evenodd;clip-rule:evenodd;fill:#13110C;}
</style>
<rect x="50.2" y="30.6" transform="matrix(0.958 -0.2867 0.2867 0.958 -56.858 62.6581)" class="st0" width="270.7" height="389.7"/>
<path class="st1" d="M46.9,133.3c68-20.3,135.9-40.7,203.9-61c0.5,1.6,0.9,3.1,1.4,4.7c-68,20.3-135.9,40.7-203.9,61
	C47.8,136.4,47.3,134.8,46.9,133.3L46.9,133.3z M39,106.8l1.4,4.7l203.9-61l-1.4-4.7L39,106.8L39,106.8z M102.3,318.5l203.9-61
	l1.4,4.7l-203.9,61L102.3,318.5L102.3,318.5z M94.4,292c0.5,1.6,0.9,3.1,1.4,4.7c68-20.3,135.9-40.7,203.9-61
	c-0.5-1.6-0.9-3.1-1.4-4.7C230.3,251.4,162.3,271.7,94.4,292L94.4,292z M86.5,265.6c0.5,1.6,0.9,3.1,1.4,4.7
	c68-20.3,135.9-40.7,203.9-61c-0.5-1.6-0.9-3.1-1.4-4.7C222.4,224.9,154.4,245.2,86.5,265.6L86.5,265.6z M78.5,239.1
	c68-20.3,135.9-40.7,203.9-61c0.5,1.6,0.9,3.1,1.4,4.7c-68,20.3-135.9,40.7-203.9,61C79.5,242.2,79,240.7,78.5,239.1L78.5,239.1z
	 M70.6,212.6c68-20.3,135.9-40.7,203.9-61c0.5,1.6,0.9,3.1,1.4,4.7c-68,20.3-135.9,40.7-203.9,61C71.6,215.8,71.1,214.2,70.6,212.6
	L70.6,212.6z M62.7,186.2c0.5,1.6,0.9,3.1,1.4,4.7c68-20.3,135.9-40.7,203.9-61c-0.5-1.6-0.9-3.1-1.4-4.7
	C198.6,145.5,130.7,165.9,62.7,186.2L62.7,186.2z M54.8,159.7c0.5,1.6,0.9,3.1,1.4,4.7c68-20.3,135.9-40.7,203.9-61
	c-0.5-1.6-0.9-3.1-1.4-4.7C190.7,119.1,122.7,139.4,54.8,159.7z"/>
<polygon class="st2" points="240.5,309.2 259.2,303.5 260.6,313.4 241.1,313 "/>
<polygon class="st3" points="246.7,306.5 283.9,294.9 286.7,314.7 247.8,314 "/>
<path class="st4" d="M327,289.7l191-27.1c5.3-0.8,10.2,3,11,8.2l0,0c0.8,5.3-3,10.2-8.2,11l-191,27.1c-5.3,0.8-10.2-3-11-8.2l0,0
	C318,295.4,321.7,290.5,327,289.7z"/>
<rect x="281.4" y="278.9" transform="matrix(0.9901 -0.1405 0.1405 0.9901 -36.7372 58.6407)" class="st2" width="231.2" height="21.1"/>
<rect x="277.2" y="290.9" transform="matrix(0.9901 -0.1404 0.1404 0.9901 -39.5718 45.1857)" class="st4" width="46.6" height="24.2"/>
<path class="st5" d="M166.6,326.2c0.2-0.8,1-1.2,1.8-1s1.2,1,1,1.8l-0.1,0.2c3.6,0.1,6.9,1.6,10.1,3.1c4.1,1.9,7.9,3.7,12.1,1.1
	c-1.4-1.3-2.4-2.8-2.9-4.5c-2-7.5-0.3-12.6,2.5-15.3c1.9-1.8,4.2-2.6,6.4-2.5c2.3,0.1,4.3,1.1,5.6,3.1c1.5,2.3,1.6,5.9-0.8,10.5
	c-2,3.8-4,6.6-5.8,8.6c1.1,0.5,2.3,1,3.6,1.3c2.4,0.6,5.1,0.7,7.4,0c1.9-0.5,3.7-1.5,5-3.1c1.8-2,4.2-4.3,6.8-6.4
	c2.6-2.1,5.3-3.9,7.6-5.2c0.7-0.4,1.6-0.1,1.9,0.6c0.4,0.7,0.1,1.6-0.6,2c-2.2,1.2-4.7,3-7.1,4.9c-2.5,2-4.8,4.2-6.5,6.1
	c-1.8,2-4,3.3-6.4,4c-2.9,0.8-6,0.7-8.9,0c-1.8-0.4-3.6-1.1-5.1-2c-5.6,4.4-10.7,2.1-16-0.4c-3-1.4-6.1-2.9-9.6-2.8
	c-1,4.6-2,11-3,17.8c-2.4,16.2-5.3,35-10.2,40.3c-1,1.1-2.7,1-4.6-0.3c-1.4-0.9-3.1-2.6-4.6-4.8c-1.5-2.1-3-4.9-4.1-8
	c-3.7-10.8-2.8-26.9,15.7-43.2c3.1-2.7,5.9-4.1,8.5-4.6C166.4,327,166.5,326.6,166.6,326.2L166.6,326.2z M162.8,347.6
	c0.9-6.3,1.9-12.3,2.8-16.9c-1.9,0.6-3.8,1.7-5.9,3.5c-17.4,15.3-18.3,30.1-14.9,40.1c1,2.9,2.3,5.3,3.7,7.3c1.4,1.9,2.8,3.3,3.9,4
	c0.6,0.4,0.8,0.8,0.9,0.7C157.6,381.7,160.4,363.4,162.8,347.6L162.8,347.6z M193.9,329.6c1.8-1.8,3.8-4.4,5.9-8.3
	c1.9-3.5,1.9-6.1,0.9-7.6c-0.7-1.1-1.9-1.7-3.2-1.7c-1.4,0-3,0.5-4.2,1.7c-2.2,2.1-3.4,6.2-1.7,12.5c0.3,1.2,1.1,2.3,2.2,3.3
	L193.9,329.6z"/>
</svg>
