<svg xmlns="http://www.w3.org/2000/svg" viewBox="0 0 273.59 268.2"><path d="M199.16,181.82c-1.41.53-2.33.8-3.18,1.21a132.29,132.29,0,0,1-69.55,13.05c-39.14-3.23-71.23-20.37-96.11-50.71a132.29,132.29,0,0,1-27.66-59A135.17,135.17,0,0,1,0,60.09C0,41.7.05,0,.05,0H52s0,4.3,0,5.32q0,26.63,0,53.25c0,14.3,3,27.94,9.87,40.5,13.91,25.45,35.28,40.49,64,44.58,33.4,4.75,67.49-11.74,84.66-42a83.28,83.28,0,0,0,11.08-41.7c0-18,0-59.91,0-59.91h52s.18,49.42-.3,72.14c-.54,25.34-4.18,50.33-9.85,75A393.43,393.43,0,0,1,238,222.46a360.61,360.61,0,0,1-22.71,42.08c-.84,1.35-2.19,3.66-2.19,3.66H149.31S160.7,252.93,164.75,247a329.8,329.8,0,0,0,33.49-62.25C198.56,184,198.74,183.18,199.16,181.82Z"/></svg>