<?xml version="1.0" encoding="utf-8"?>
<!-- Generator: Adobe Illustrator 26.0.0, SVG Export Plug-In . SVG Version: 6.00 Build 0)  -->
<svg version="1.1" xmlns="http://www.w3.org/2000/svg" xmlns:xlink="http://www.w3.org/1999/xlink" x="0px" y="0px"
	 viewBox="0 0 281.1 269" style="enable-background:new 0 0 281.1 269;" xml:space="preserve">
<style type="text/css">
	.st0{fill:none;stroke:#FF0000;stroke-miterlimit:10;}
	.st1{display:none;}
	.st2{display:inline;fill:#F3F3F3;}
	.st3{display:inline;}
	.st4{fill:none;stroke:#FF0000;stroke-width:0.5;stroke-miterlimit:10;}
	.st5{fill:none;}
</style>
<g id="Layer_2">
	
		<image style="overflow:visible;" width="1805" height="475" xlink:href="C:\Users\vipul\Downloads\Screenshot 2022-12-28 111721.png"  transform="matrix(0.75 0 0 0.75 -699 309)">
	</image>
	<rect x="71" y="408" width="180" height="230"/>
</g>
<g id="Layer_3_00000173149548740019511890000001460707156795694483_">
	<line class="st0" x1="136.2" y1="610.1" x2="211" y2="444.6"/>
</g>
<g id="Layer_4" class="st1">
	<polygon class="st2" points="211.9,448.1 177.7,522.3 129.8,448.1 95.6,448.1 163.4,553.2 138.9,606.5 171.2,606.5 244.5,448.1 	
		"/>
	<polygon class="st2" points="282.3,-825.4 241.8,-737.6 185.2,-825.4 144.6,-825.4 224.9,-700.9 195.9,-637.9 234.2,-637.9 
		321,-825.4 	"/>
	<g class="st3">
		<path d="M-343.6-52.9h41.2v25.1c5.8-8,14.1-14.8,24.9-20.4s22.7-8.4,35.4-8.4c25.5,0,46.9,9.5,64.3,28.5s26.1,42,26.1,69
			s-8.7,50-26.1,69s-38.8,28.5-64.3,28.5c-12.8,0-24.6-2.8-35.4-8.4s-19.2-12.4-24.9-20.4v103.5h-41.2V-52.9z M-209.3-1.9
			c-10.5-11.5-23.9-17.2-40.1-17.2c-16.5,0-30,5.8-40.5,17.2s-15.8,25.8-15.8,42.8s5.2,31.2,15.8,42.7s24,17.2,40.5,17.2
			c16.2,0,29.6-5.8,40.1-17.2s15.8-25.7,15.8-42.7S-198.8,9.6-209.3-1.9z"/>
	</g>
</g>
<g id="Layer_6">
	<path d="M-856.7-825.4h45.8l57,131.2l57.4-131.2h46.1l-85.1,187.5H-772L-856.7-825.4z"/>
	<path d="M-613.5-800.6c17.4-19,38.8-28.5,64.3-28.5c12.8,0,24.5,2.8,35.3,8.4c10.7,5.6,19,12.4,24.7,20.4l0-25.1h41.2l0,187.5
		h-41.2l0-25.1c-5.8,8-14,14.8-24.7,20.4c-10.8,5.6-22.5,8.4-35.3,8.4c-25.5,0-46.9-9.5-64.3-28.5s-26.1-42-26.1-69
		C-639.6-758.6-630.9-781.6-613.5-800.6z M-501.4-774.4c-10.4-11.5-23.8-17.2-40.3-17.2s-29.9,5.8-40.3,17.2
		c-10.4,11.5-15.6,25.8-15.6,42.8c0,17,5.2,31.2,15.6,42.7s23.8,17.2,40.3,17.2s29.9-5.8,40.3-17.2s15.6-25.7,15.6-42.7
		C-485.8-748.6-491-762.9-501.4-774.4z"/>
	<path d="M-350.8-637.9h-41.2l0-281.2h41.2l0,118.9c5.8-8,14.1-14.8,24.9-20.4c10.9-5.6,22.7-8.4,35.4-8.4
		c25.5,0,46.9,9.5,64.3,28.5c17.4,19,26.1,42,26.1,69s-8.7,50-26.1,69s-38.8,28.5-64.3,28.5c-12.8,0-24.6-2.8-35.4-8.4
		c-10.9-5.6-19.2-12.4-24.9-20.4L-350.8-637.9z M-257.8-774.4c-10.5-11.5-23.9-17.2-40.1-17.2c-16.5,0-30,5.8-40.5,17.2
		c-10.5,11.5-15.8,25.8-15.7,42.8c0,17,5.2,31.2,15.7,42.7s24,17.2,40.5,17.2c16.2,0,29.6-5.8,40.1-17.2
		c10.5-11.5,15.7-25.7,15.8-42.7C-242.1-748.6-247.3-762.9-257.8-774.4z"/>
	<path d="M-116.8-637.9h-41.3l0-281.2h41.3l0,118.9c5.8-8,14.1-14.8,24.9-20.4c10.9-5.6,22.7-8.4,35.4-8.4
		c25.5,0,46.9,9.5,64.3,28.5c17.4,19,26.1,42,26.1,69c0,27-8.7,50-26.1,69s-38.8,28.5-64.3,28.5c-12.8,0-24.6-2.8-35.4-8.4
		c-10.9-5.6-19.2-12.4-24.9-20.4L-116.8-637.9z M-23.8-774.4c-10.5-11.5-23.9-17.2-40.1-17.2c-16.5,0-30,5.8-40.5,17.2
		c-10.5,11.5-15.8,25.8-15.7,42.8c0,17,5.2,31.2,15.7,42.7s24,17.2,40.5,17.2c16.2,0,29.6-5.8,40.1-17.2s15.7-25.7,15.8-42.7
		C-8.1-748.6-13.3-762.9-23.8-774.4z"/>
	<path d="M96.6-637.9l24.8-58.6L52.6-825.4H99l43.3,88.1l38.8-88.1h42.8l-84.9,187.5H96.6z"/>
	<path d="M282.5-644.4c-6.4,6.4-14.1,9.6-23.1,9.6c-8.7,0-16.3-3.2-22.7-9.6s-9.6-14.1-9.6-23.1c0-8.8,3.2-16.4,9.6-22.9
		c6.4-6.5,13.9-9.8,22.7-9.8c9,0,16.7,3.2,23.1,9.8c6.4,6.5,9.6,14.1,9.6,22.9C292.1-658.5,288.9-650.8,282.5-644.4z"/>
	<path d="M337.1-825.4h41.2l0,25.5c11.5-19.5,29.2-29.2,53.2-29.2c28,0,47.4,12.4,58.1,37.1c5.5-11.8,13.7-20.9,24.6-27.4
		c10.9-6.5,22.7-9.8,35.4-9.8c21,0,37.5,7.1,49.5,21.4c12,14.2,18,33.5,18,57.7l0,112.1H576l0-105.4c0-15-2.8-26.8-8.4-35.4
		c-5.6-8.6-13.9-12.9-24.9-12.9c-13.5,0-24.3,5.4-32.4,16.3c-8.1,10.9-12.2,25.9-12.2,45.2l0,92.2h-41.2l0-105.4
		c0-15-2.8-26.8-8.4-35.4c-5.6-8.6-13.9-12.9-24.9-12.9c-13.5,0-24.4,5.4-32.6,16.3c-8.3,10.9-12.4,25.9-12.4,45.2l0,92.2h-41.2
		L337.1-825.4z"/>
	<line class="st4" x1="90.7" y1="-618.6" x2="172.3" y2="-805"/>
</g>
<g id="Layer_5">
	<line class="st0" x1="112.3" y1="475.4" x2="162.4" y2="554.7"/>
</g>
<g id="Layer_1">
	<g id="Layer_1_00000182491134362288630410000006267842235618640798_" class="st1">
		<path class="st3" d="M206.6,181.8c-1.4,0.5-2.3,0.8-3.2,1.2c-21.6,10.6-45.6,15.1-69.6,13.1c-39.1-3.2-71.2-20.4-96.1-50.7
			c-14-17.1-23.5-37.3-27.7-59c-1.7-8.7-2.6-17.5-2.7-26.3c0-18.4,0-60.1,0-60.1h52c0,0,0,4.3,0,5.3c0,17.8,0,35.5,0,53.2
			c0,14.3,3,27.9,9.9,40.5c13.9,25.5,35.3,40.5,64,44.6c33.4,4.8,67.5-11.7,84.7-42c7.3-12.7,11.1-27.1,11.1-41.7
			c0-18,0-59.9,0-59.9h52c0,0,0.2,49.4-0.3,72.1c-0.5,25.3-4.2,50.3-9.9,75c-5.9,25.9-14.5,51.1-25.5,75.3
			c-6.6,14.5-14.2,28.6-22.7,42.1c-0.8,1.4-2.2,3.7-2.2,3.7h-63.8c0,0,11.4-15.3,15.4-21.2c13.4-19.5,24.6-40.4,33.5-62.2
			C206,184,206.2,183.2,206.6,181.8z"/>
	</g>
	<g id="Layer_2_00000057865066457732587150000002686280196357226378_" class="st1">
	</g>
	<g id="Layer_3">
		<g>
			<path d="M56.7,269l45.9-83L0,0h85.6l58.7,117.2L202.5,0h78.6L133.9,269H56.7z"/>
		</g>
		<line class="st5" x1="48.6" y1="283.6" x2="232.8" y2="-49.3"/>
	</g>
</g>
</svg>
