<svg xmlns="http://www.w3.org/2000/svg" viewBox="0 0 43.39 43.39"><defs><style>.a{fill:#fff;}</style></defs><path class="a" d="M23.11,20h0v-.06Zm0,0h0v-.06ZM39.5,9.31A21.69,21.69,0,0,0,9.3,3.89,21.68,21.68,0,0,0,3.89,34.08,21.67,21.67,0,0,0,34.08,39.5a21.81,21.81,0,0,0,5.42-5.42,21.66,21.66,0,0,0,0-24.77ZM9.23,12.64a2.79,2.79,0,0,1,3-2.77,2.78,2.78,0,1,1,0,5.55h0A2.76,2.76,0,0,1,9.23,12.64Zm5.66,5V33.7H9.55V17.62ZM34.11,33.7H28.77V25.1c0-2.17-.77-3.64-2.71-3.64a2.91,2.91,0,0,0-2.74,1.95,3.74,3.74,0,0,0-.18,1.31v9H17.8s.07-14.57,0-16.08h5.34v2.27A5.32,5.32,0,0,1,28,17.24c3.52,0,6.15,2.29,6.15,7.23ZM23.14,20v-.06l0,.06Z"/></svg>
