{
  "accessors": [
    {
      "bufferView": 2,
      "componentType": 5126,
      "count": 65532,
      "max": [
        1.2968839406967163,
        -4.324748992919922,
        1.0336600542068481
      ],
      "min": [
        -1.5494149923324585,
        -5.861954212188721,
        -0.5757650136947632
      ],
      "type": "VEC3"
    },
    {
      "bufferView": 2,
      "byteOffset": 786384,
      "componentType": 5126,
      "count": 65532,
      "max": [
        0.9999887347221375,
        0.9998134970664978,
        0.9999908804893494
      ],
      "min": [
        -0.9976726174354553,
        -0.999896228313446,
        -0.999920666217804
      ],
      "type": "VEC3"
    },
    {
      "bufferView": 1,
      "componentType": 5126,
      "count": 65532,
      "max": [
        0.9868770241737366,
        0.9997940063476563
      ],
      "min": [
        0.0008709999965503812,
        0.003501000115647912
      ],
      "type": "VEC2"
    },
    {
      "bufferView": 0,
      "componentType": 5125,
      "count": 326868,
      "type": "SCALAR"
    },
    {
      "bufferView": 2,
      "byteOffset": 1572768,
      "componentType": 5126,
      "count": 65532,
      "max": [
        1.2410989999771118,
        -4.336465835571289,
        0.6238089799880981
      ],
      "min": [
        -1.2627379894256592,
        -5.608613014221191,
        -0.573943018913269
      ],
      "type": "VEC3"
    },
    {
      "bufferView": 2,
      "byteOffset": 2359152,
      "componentType": 5126,
      "count": 65532,
      "max": [
        0.9989816546440125,
        0.9998083710670471,
        0.9999997615814209
      ],
      "min": [
        -0.9996215105056763,
        -0.9999784827232361,
        -0.9998500943183899
      ],
      "type": "VEC3"
    },
    {
      "bufferView": 1,
      "byteOffset": 524256,
      "componentType": 5126,
      "count": 65532,
      "max": [
        0.9350060224533081,
        0.9961130023002625
      ],
      "min": [
        0.015468000434339046,
        0.004741999786347151
      ],
      "type": "VEC2"
    },
    {
      "bufferView": 0,
      "byteOffset": 1307472,
      "componentType": 5125,
      "count": 325893,
      "type": "SCALAR"
    },
    {
      "bufferView": 2,
      "byteOffset": 3145536,
      "componentType": 5126,
      "count": 65532,
      "max": [
        1.1394139528274536,
        -4.309840202331543,
        0.7615470290184021
      ],
      "min": [
        -1.2490530014038086,
        -5.688806056976318,
        -0.611748993396759
      ],
      "type": "VEC3"
    },
    {
      "bufferView": 2,
      "byteOffset": 3931920,
      "componentType": 5126,
      "count": 65532,
      "max": [
        0.9886902570724487,
        0.9999988675117493,
        0.9999930262565613
      ],
      "min": [
        -0.9999455809593201,
        -0.9999858736991882,
        -0.9999847412109375
      ],
      "type": "VEC3"
    },
    {
      "bufferView": 1,
      "byteOffset": 1048512,
      "componentType": 5126,
      "count": 65532,
      "max": [
        0.9953420162200928,
        0.9941539764404297
      ],
      "min": [
        0.06213599815964699,
        0.004794000182300806
      ],
      "type": "VEC2"
    },
    {
      "bufferView": 0,
      "byteOffset": 2611044,
      "componentType": 5125,
      "count": 302085,
      "type": "SCALAR"
    },
    {
      "bufferView": 2,
      "byteOffset": 4718304,
      "componentType": 5126,
      "count": 65532,
      "max": [
        -0.03656600043177605,
        -4.309840202331543,
        0.7603449821472168
      ],
      "min": [
        -1.3150269985198975,
        -5.689816951751709,
        -0.617713987827301
      ],
      "type": "VEC3"
    },
    {
      "bufferView": 2,
      "byteOffset": 5504688,
      "componentType": 5126,
      "count": 65532,
      "max": [
        0.999963104724884,
        0.9999881386756897,
        0.9996417760848999
      ],
      "min": [
        -0.9999702572822571,
        -0.9997856616973877,
        -0.99997878074646
      ],
      "type": "VEC3"
    },
    {
      "bufferView": 1,
      "byteOffset": 1572768,
      "componentType": 5126,
      "count": 65532,
      "max": [
        0.994579017162323,
        0.9898859858512878
      ],
      "min": [
        0.0377269983291626,
        0.0039519998244941235
      ],
      "type": "VEC2"
    },
    {
      "bufferView": 0,
      "byteOffset": 3819384,
      "componentType": 5125,
      "count": 345336,
      "type": "SCALAR"
    },
    {
      "bufferView": 2,
      "byteOffset": 6291072,
      "componentType": 5126,
      "count": 65532,
      "max": [
        -0.7980700135231018,
        -4.077569007873535,
        1.0445330142974854
      ],
      "min": [
        -1.6407849788665771,
        -5.861954212188721,
        -1.0015710592269897
      ],
      "type": "VEC3"
    },
    {
      "bufferView": 2,
      "byteOffset": 7077456,
      "componentType": 5126,
      "count": 65532,
      "max": [
        0.9999979734420776,
        0.9998836517333984,
        0.999787449836731
      ],
      "min": [
        -0.999957263469696,
        -0.9998626708984375,
        -0.9999799728393555
      ],
      "type": "VEC3"
    },
    {
      "bufferView": 1,
      "byteOffset": 2097024,
      "componentType": 5126,
      "count": 65532,
      "max": [
        0.9937080144882202,
        0.9989519715309143
      ],
      "min": [
        0.012280000373721123,
        0.12022999674081802
      ],
      "type": "VEC2"
    },
    {
      "bufferView": 0,
      "byteOffset": 5200728,
      "componentType": 5125,
      "count": 325203,
      "type": "SCALAR"
    },
    {
      "bufferView": 2,
      "byteOffset": 7863840,
      "componentType": 5126,
      "count": 65532,
      "max": [
        0.2003680020570755,
        -4.044757843017578,
        1.0445330142974854
      ],
      "min": [
        -1.6415270566940308,
        -5.860195159912109,
        -1.0068939924240112
      ],
      "type": "VEC3"
    },
    {
      "bufferView": 2,
      "byteOffset": 8650224,
      "componentType": 5126,
      "count": 65532,
      "max": [
        0.9999998807907104,
        0.9998689889907837,
        0.9999566674232483
      ],
      "min": [
        -0.9997420907020569,
        -0.9999985098838806,
        -0.9999746680259705
      ],
      "type": "VEC3"
    },
    {
      "bufferView": 1,
      "byteOffset": 2621280,
      "componentType": 5126,
      "count": 65532,
      "max": [
        0.9853489995002747,
        0.9995970129966736
      ],
      "min": [
        0.001373999984934926,
        0.0037010000087320805
      ],
      "type": "VEC2"
    },
    {
      "bufferView": 0,
      "byteOffset": 6501540,
      "componentType": 5125,
      "count": 288555,
      "type": "SCALAR"
    },
    {
      "bufferView": 2,
      "byteOffset": 9436608,
      "componentType": 5126,
      "count": 48561,
      "max": [
        0.6310889720916748,
        -4.435654163360596,
        0.5677000284194946
      ],
      "min": [
        -0.46590399742126465,
        -5.5569658279418945,
        -0.5794979929924011
      ],
      "type": "VEC3"
    },
    {
      "bufferView": 2,
      "byteOffset": 10019340,
      "componentType": 5126,
      "count": 48561,
      "max": [
        0.9998138546943665,
        0.9999334812164307,
        0.9999847412109375
      ],
      "min": [
        -0.9999783635139465,
        -0.9998769760131836,
        -0.9999914765357971
      ],
      "type": "VEC3"
    },
    {
      "bufferView": 1,
      "byteOffset": 3145536,
      "componentType": 5126,
      "count": 48561,
      "max": [
        0.9873189926147461,
        0.9993159770965576
      ],
      "min": [
        0.0067460001446306705,
        0.019891999661922455
      ],
      "type": "VEC2"
    },
    {
      "bufferView": 0,
      "byteOffset": 7655760,
      "componentType": 5125,
      "count": 205296,
      "type": "SCALAR"
    }
  ],
  "asset": {
    "extras": {
      "author": "ryanfb (https://sketchfab.com/ryanfb)",
      "license": "CC-BY-4.0 (http://creativecommons.org/licenses/by/4.0/)",
      "source": "https://sketchfab.com/3d-models/louvre-caligula-photoscan-a3913ed7f44f4ef08158aa7f668ccb6f",
      "title": "Louvre Caligula (PhotoScan)"
    },
    "generator": "Sketchfab-12.68.0",
    "version": "2.0"
  },
  "bufferViews": [
    {
      "buffer": 0,
      "byteLength": 8476944,
      "name": "floatBufferViews",
      "target": 34963
    },
    {
      "buffer": 0,
      "byteLength": 3534024,
      "byteOffset": 8476944,
      "byteStride": 8,
      "name": "floatBufferViews",
      "target": 34962
    },
    {
      "buffer": 0,
      "byteLength": 10602072,
      "byteOffset": 12010968,
      "byteStride": 12,
      "name": "floatBufferViews",
      "target": 34962
    }
  ],
  "buffers": [
    {
      "byteLength": 22613040,
      "uri": "scene.bin"
    }
  ],
  "extensionsUsed": [
    "KHR_materials_unlit"
  ],
  "images": [
    {
      "uri": "textures/material_0_baseColor.jpeg"
    }
  ],
  "materials": [
    {
      "doubleSided": true,
      "extensions": {
        "KHR_materials_unlit": {}
      },
      "name": "material_0",
      "pbrMetallicRoughness": {
        "baseColorTexture": {
          "index": 0
        },
        "metallicFactor": 0.0
      }
    }
  ],
  "meshes": [
    {
      "name": "Object_0",
      "primitives": [
        {
          "attributes": {
            "NORMAL": 1,
            "POSITION": 0,
            "TEXCOORD_0": 2
          },
          "indices": 3,
          "material": 0,
          "mode": 4
        }
      ]
    },
    {
      "name": "Object_1",
      "primitives": [
        {
          "attributes": {
            "NORMAL": 5,
            "POSITION": 4,
            "TEXCOORD_0": 6
          },
          "indices": 7,
          "material": 0,
          "mode": 4
        }
      ]
    },
    {
      "name": "Object_2",
      "primitives": [
        {
          "attributes": {
            "NORMAL": 9,
            "POSITION": 8,
            "TEXCOORD_0": 10
          },
          "indices": 11,
          "material": 0,
          "mode": 4
        }
      ]
    },
    {
      "name": "Object_3",
      "primitives": [
        {
          "attributes": {
            "NORMAL": 13,
            "POSITION": 12,
            "TEXCOORD_0": 14
          },
          "indices": 15,
          "material": 0,
          "mode": 4
        }
      ]
    },
    {
      "name": "Object_4",
      "primitives": [
        {
          "attributes": {
            "NORMAL": 17,
            "POSITION": 16,
            "TEXCOORD_0": 18
          },
          "indices": 19,
          "material": 0,
          "mode": 4
        }
      ]
    },
    {
      "name": "Object_5",
      "primitives": [
        {
          "attributes": {
            "NORMAL": 21,
            "POSITION": 20,
            "TEXCOORD_0": 22
          },
          "indices": 23,
          "material": 0,
          "mode": 4
        }
      ]
    },
    {
      "name": "Object_6",
      "primitives": [
        {
          "attributes": {
            "NORMAL": 25,
            "POSITION": 24,
            "TEXCOORD_0": 26
          },
          "indices": 27,
          "material": 0,
          "mode": 4
        }
      ]
    }
  ],
  "nodes": [
    {
      "children": [
        1
      ],
      "matrix": [
        -0.005185003392398357,
        0.9999865293502808,
        2.2204161383993632e-16,
        0.0,
        0.0,
        2.220446049250313e-16,
        -1.0,
        0.0,
        -0.9999865293502808,
        -0.005185003392398357,
        -1.1513020298000403e-18,
        0.0,
        -0.15097643435001373,
        0.20201228559017181,
        4.4855738143872296e-17,
        1.0
      ],
      "name": "Sketchfab_model"
    },
    {
      "children": [
        2,
        3,
        4,
        5,
        6,
        7,
        8
      ],
      "name": "caligula-cleaned.obj.cleaner"
    },
    {
      "mesh": 0,
      "name": "Object_2"
    },
    {
      "mesh": 1,
      "name": "Object_3"
    },
    {
      "mesh": 2,
      "name": "Object_4"
    },
    {
      "mesh": 3,
      "name": "Object_5"
    },
    {
      "mesh": 4,
      "name": "Object_6"
    },
    {
      "mesh": 5,
      "name": "Object_7"
    },
    {
      "mesh": 6,
      "name": "Object_8"
    }
  ],
  "samplers": [
    {
      "magFilter": 9729,
      "minFilter": 9987,
      "wrapS": 10497,
      "wrapT": 10497
    }
  ],
  "scene": 0,
  "scenes": [
    {
      "name": "Sketchfab_Scene",
      "nodes": [
        0
      ]
    }
  ],
  "textures": [
    {
      "sampler": 0,
      "source": 0
    }
  ]
}
