{
	"asset":{
		"generator":"Khronos glTF Blender I/O v4.2.69",
		"version":"2.0"
	},
	"scene":0,
	"scenes":[
		{
			"name":"Scene",
			"nodes":[
				8
			]
		}
	],
	"nodes":[
		{
			"mesh":0,
			"name":"Object_2.001",
			"translation":[
				-0.08719617128372192,
				-0.047192566096782684,
				0.0004521007358562201
			]
		},
		{
			"mesh":1,
			"name":"Object_3.001",
			"translation":[
				-0.08719617128372192,
				-0.047192566096782684,
				0.0004521007358562201
			]
		},
		{
			"mesh":2,
			"name":"Object_4.001",
			"translation":[
				-0.08719617128372192,
				-0.047192566096782684,
				0.0004521007358562201
			]
		},
		{
			"mesh":3,
			"name":"Object_5.001",
			"translation":[
				-0.08719617128372192,
				-0.047192566096782684,
				0.0004521007358562201
			]
		},
		{
			"mesh":4,
			"name":"Object_6.001",
			"translation":[
				-0.08719617128372192,
				-0.047192566096782684,
				0.0004521007358562201
			]
		},
		{
			"mesh":5,
			"name":"Object_7.001",
			"translation":[
				-0.08719617128372192,
				-0.047192566096782684,
				0.0004521007358562201
			]
		},
		{
			"mesh":6,
			"name":"Object_8.001",
			"translation":[
				-0.08719617128372192,
				-0.047192566096782684,
				0.0004521007358562201
			]
		},
		{
			"children":[
				0,
				1,
				2,
				3,
				4,
				5,
				6
			],
			"name":"caligula-cleaned.obj.cleaner.001",
			"rotation":[
				-0.6444967985153198,
				-0.6185184121131897,
				0.3243204951286316,
				0.31124773621559143
			]
		},
		{
			"children":[
				7
			],
			"name":"Sketchfab_model.001",
			"translation":[
				-0.15097643435001373,
				0.3813473582267761,
				0
			]
		}
	],
	"meshes":[
		{
			"name":"Object_0.002",
			"primitives":[
				{
					"attributes":{
						"POSITION":0,
						"NORMAL":1,
						"TEXCOORD_0":2
					},
					"indices":3
				}
			]
		},
		{
			"name":"Object_1.002",
			"primitives":[
				{
					"attributes":{
						"POSITION":4,
						"NORMAL":5,
						"TEXCOORD_0":6
					},
					"indices":7
				}
			]
		},
		{
			"name":"Object_2.002",
			"primitives":[
				{
					"attributes":{
						"POSITION":8,
						"NORMAL":9,
						"TEXCOORD_0":10
					},
					"indices":11
				}
			]
		},
		{
			"name":"Object_3.002",
			"primitives":[
				{
					"attributes":{
						"POSITION":12,
						"NORMAL":13,
						"TEXCOORD_0":14
					},
					"indices":15
				}
			]
		},
		{
			"name":"Object_4.002",
			"primitives":[
				{
					"attributes":{
						"POSITION":16,
						"NORMAL":17,
						"TEXCOORD_0":18
					},
					"indices":19
				}
			]
		},
		{
			"name":"Object_5.002",
			"primitives":[
				{
					"attributes":{
						"POSITION":20,
						"NORMAL":21,
						"TEXCOORD_0":22
					},
					"indices":23
				}
			]
		},
		{
			"name":"Object_6.002",
			"primitives":[
				{
					"attributes":{
						"POSITION":24,
						"NORMAL":25,
						"TEXCOORD_0":26
					},
					"indices":27
				}
			]
		}
	],
	"accessors":[
		{
			"bufferView":0,
			"componentType":5126,
			"count":65777,
			"max":[
				1.2968838214874268,
				0.7522001266479492,
				1.0336596965789795
			],
			"min":[
				-1.549415111541748,
				-0.7850050926208496,
				-0.5757653117179871
			],
			"type":"VEC3"
		},
		{
			"bufferView":1,
			"componentType":5126,
			"count":65777,
			"type":"VEC3"
		},
		{
			"bufferView":2,
			"componentType":5126,
			"count":65777,
			"type":"VEC2"
		},
		{
			"bufferView":3,
			"componentType":5125,
			"count":326868,
			"type":"SCALAR"
		},
		{
			"bufferView":4,
			"componentType":5126,
			"count":65810,
			"max":[
				1.2410988807678223,
				0.740483283996582,
				0.6238086819648743
			],
			"min":[
				-1.2627381086349487,
				-0.5316638946533203,
				-0.5739433169364929
			],
			"type":"VEC3"
		},
		{
			"bufferView":5,
			"componentType":5126,
			"count":65810,
			"type":"VEC3"
		},
		{
			"bufferView":6,
			"componentType":5126,
			"count":65810,
			"type":"VEC2"
		},
		{
			"bufferView":7,
			"componentType":5125,
			"count":325893,
			"type":"SCALAR"
		},
		{
			"bufferView":8,
			"componentType":5126,
			"count":65863,
			"max":[
				1.139413833618164,
				0.7671089172363281,
				0.7615467309951782
			],
			"min":[
				-1.2490531206130981,
				-0.6118569374084473,
				-0.6117492914199829
			],
			"type":"VEC3"
		},
		{
			"bufferView":9,
			"componentType":5126,
			"count":65863,
			"type":"VEC3"
		},
		{
			"bufferView":10,
			"componentType":5126,
			"count":65863,
			"type":"VEC2"
		},
		{
			"bufferView":11,
			"componentType":5125,
			"count":302085,
			"type":"SCALAR"
		},
		{
			"bufferView":12,
			"componentType":5126,
			"count":65717,
			"max":[
				-0.03656608238816261,
				0.7671089172363281,
				0.7603446841239929
			],
			"min":[
				-1.315027117729187,
				-0.6128678321838379,
				-0.6177142858505249
			],
			"type":"VEC3"
		},
		{
			"bufferView":13,
			"componentType":5126,
			"count":65717,
			"type":"VEC3"
		},
		{
			"bufferView":14,
			"componentType":5126,
			"count":65717,
			"type":"VEC2"
		},
		{
			"bufferView":15,
			"componentType":5125,
			"count":345336,
			"type":"SCALAR"
		},
		{
			"bufferView":16,
			"componentType":5126,
			"count":65764,
			"max":[
				-0.7980700731277466,
				0.9993801116943359,
				1.0445327758789062
			],
			"min":[
				-1.6407850980758667,
				-0.7850050926208496,
				-1.0015714168548584
			],
			"type":"VEC3"
		},
		{
			"bufferView":17,
			"componentType":5126,
			"count":65764,
			"type":"VEC3"
		},
		{
			"bufferView":18,
			"componentType":5126,
			"count":65764,
			"type":"VEC2"
		},
		{
			"bufferView":19,
			"componentType":5125,
			"count":325203,
			"type":"SCALAR"
		},
		{
			"bufferView":20,
			"componentType":5126,
			"count":65916,
			"max":[
				0.20036792755126953,
				1.032191276550293,
				1.0445327758789062
			],
			"min":[
				-1.6415271759033203,
				-0.7832460403442383,
				-1.0068943500518799
			],
			"type":"VEC3"
		},
		{
			"bufferView":21,
			"componentType":5126,
			"count":65916,
			"type":"VEC3"
		},
		{
			"bufferView":22,
			"componentType":5126,
			"count":65916,
			"type":"VEC2"
		},
		{
			"bufferView":23,
			"componentType":5125,
			"count":288555,
			"type":"SCALAR"
		},
		{
			"bufferView":24,
			"componentType":5126,
			"count":48886,
			"max":[
				0.63108891248703,
				0.6412949562072754,
				0.5676997303962708
			],
			"min":[
				-0.4659040868282318,
				-0.48001670837402344,
				-0.579498291015625
			],
			"type":"VEC3"
		},
		{
			"bufferView":25,
			"componentType":5126,
			"count":48886,
			"type":"VEC3"
		},
		{
			"bufferView":26,
			"componentType":5126,
			"count":48886,
			"type":"VEC2"
		},
		{
			"bufferView":27,
			"componentType":5123,
			"count":205296,
			"type":"SCALAR"
		}
	],
	"bufferViews":[
		{
			"buffer":0,
			"byteLength":789324,
			"byteOffset":0,
			"target":34962
		},
		{
			"buffer":0,
			"byteLength":789324,
			"byteOffset":789324,
			"target":34962
		},
		{
			"buffer":0,
			"byteLength":526216,
			"byteOffset":1578648,
			"target":34962
		},
		{
			"buffer":0,
			"byteLength":1307472,
			"byteOffset":2104864,
			"target":34963
		},
		{
			"buffer":0,
			"byteLength":789720,
			"byteOffset":3412336,
			"target":34962
		},
		{
			"buffer":0,
			"byteLength":789720,
			"byteOffset":4202056,
			"target":34962
		},
		{
			"buffer":0,
			"byteLength":526480,
			"byteOffset":4991776,
			"target":34962
		},
		{
			"buffer":0,
			"byteLength":1303572,
			"byteOffset":5518256,
			"target":34963
		},
		{
			"buffer":0,
			"byteLength":790356,
			"byteOffset":6821828,
			"target":34962
		},
		{
			"buffer":0,
			"byteLength":790356,
			"byteOffset":7612184,
			"target":34962
		},
		{
			"buffer":0,
			"byteLength":526904,
			"byteOffset":8402540,
			"target":34962
		},
		{
			"buffer":0,
			"byteLength":1208340,
			"byteOffset":8929444,
			"target":34963
		},
		{
			"buffer":0,
			"byteLength":788604,
			"byteOffset":10137784,
			"target":34962
		},
		{
			"buffer":0,
			"byteLength":788604,
			"byteOffset":10926388,
			"target":34962
		},
		{
			"buffer":0,
			"byteLength":525736,
			"byteOffset":11714992,
			"target":34962
		},
		{
			"buffer":0,
			"byteLength":1381344,
			"byteOffset":12240728,
			"target":34963
		},
		{
			"buffer":0,
			"byteLength":789168,
			"byteOffset":13622072,
			"target":34962
		},
		{
			"buffer":0,
			"byteLength":789168,
			"byteOffset":14411240,
			"target":34962
		},
		{
			"buffer":0,
			"byteLength":526112,
			"byteOffset":15200408,
			"target":34962
		},
		{
			"buffer":0,
			"byteLength":1300812,
			"byteOffset":15726520,
			"target":34963
		},
		{
			"buffer":0,
			"byteLength":790992,
			"byteOffset":17027332,
			"target":34962
		},
		{
			"buffer":0,
			"byteLength":790992,
			"byteOffset":17818324,
			"target":34962
		},
		{
			"buffer":0,
			"byteLength":527328,
			"byteOffset":18609316,
			"target":34962
		},
		{
			"buffer":0,
			"byteLength":1154220,
			"byteOffset":19136644,
			"target":34963
		},
		{
			"buffer":0,
			"byteLength":586632,
			"byteOffset":20290864,
			"target":34962
		},
		{
			"buffer":0,
			"byteLength":586632,
			"byteOffset":20877496,
			"target":34962
		},
		{
			"buffer":0,
			"byteLength":391088,
			"byteOffset":21464128,
			"target":34962
		},
		{
			"buffer":0,
			"byteLength":410592,
			"byteOffset":21855216,
			"target":34963
		}
	],
	"buffers":[
		{
			"byteLength":22265808,
			"uri":"untitled.bin"
		}
	]
}
