<svg width="800" height="800" viewBox="0 0 800 800" fill="none" xmlns="http://www.w3.org/2000/svg">
<path d="M50 303.332C50 214.658 50 170.321 67.2572 136.451C82.4373 106.659 106.659 82.4373 136.451 67.2572C170.321 50 214.658 50 303.332 50H496.667C585.342 50 629.68 50 663.548 67.2572C693.34 82.4373 717.562 106.659 732.743 136.451C750 170.321 750 214.658 750 303.332V496.667C750 585.342 750 629.68 732.743 663.548C717.562 693.34 693.34 717.562 663.548 732.743C629.68 750 585.342 750 496.667 750H303.332C214.658 750 170.321 750 136.451 732.743C106.659 717.562 82.4373 693.34 67.2572 663.548C50 629.68 50 585.342 50 496.667V303.332Z" fill="#00005B"/>
<path d="M344.732 489.095H236.26L214.19 559.547C213.577 562.16 211.171 564.01 208.554 563.882H153.613C150.48 563.882 149.385 562.117 150.326 558.585L244.242 282.315C245.182 279.427 246.121 276.602 247.061 272.907C248.289 266.48 248.918 259.95 248.939 253.402C248.67 251.467 250.34 249.753 252.225 250.03H326.89C329.077 250.03 330.327 250.832 330.645 252.437L437.242 559.065C438.18 562.28 437.24 563.885 434.425 563.882H373.377C371.237 564.125 369.192 562.657 368.682 560.51L344.732 489.095ZM253.165 429.692H327.36C315.17 388.037 301.412 346.932 290.262 304.952C277.627 348.497 265.96 388.882 253.165 429.692Z" fill="#9999FF"/>
<path d="M516.522 461.893C520.839 497.665 550.879 514.72 584.142 513.993C602.899 513.625 622.944 510.713 640.472 503.62C642.032 502.343 642.819 503.14 642.819 506.03V551.783C642.967 554.163 641.972 556.29 640.002 557.563C618.217 567.458 593.212 570.443 569.584 570.063C499.139 570.063 450.762 520.428 450.782 448.213C450.597 379.778 494.994 322.043 563.949 322.043C622.402 320.528 662.869 367.325 663.032 425.578C663.032 436.185 662.439 446.833 661.154 457.363C660.904 459.533 659.057 461.218 656.927 461.218C610.244 461.218 563.334 461.893 516.522 461.893ZM516.522 418.018C542.539 418.018 568.707 418.938 594.707 417.778C598.614 417.378 601.517 416.635 601.517 412.573C600.974 390.978 582.749 373.215 561.602 374.043C536.052 372.458 519.699 394.028 516.522 418.018Z" fill="#9999FF"/>
</svg>
