<svg width="800" height="800" viewBox="0 0 800 800" fill="none" xmlns="http://www.w3.org/2000/svg">
<mask id="mask0_134_162" style="mask-type:luminance" maskUnits="userSpaceOnUse" x="50" y="50" width="700" height="700">
<path d="M691.667 50H108.333C76.1168 50 50 76.1167 50 108.333V691.667C50 723.883 76.1168 750 108.333 750H691.667C723.883 750 750 723.883 750 691.667V108.333C750 76.1167 723.883 50 691.667 50Z" fill="white"/>
</mask>
<g mask="url(#mask0_134_162)">
<path d="M749.983 49.999H49.9805V750H749.983V49.999Z" fill="#C8FF52"/>
<path d="M407.371 265.71L345.076 534.299H243.223C253.408 488.916 267.35 444.469 284.903 401.424C305.197 354.65 328.601 309.303 354.955 265.693L407.371 265.71Z" fill="#111111"/>
<path d="M564.062 265.71L501.767 534.299H399.914C410.1 488.916 424.04 444.469 441.594 401.424C461.886 354.65 485.293 309.303 511.647 265.693L564.062 265.71Z" fill="#111111"/>
</g>
</svg>
