<svg width="700" height="700" viewBox="0 0 700 700" fill="none" xmlns="http://www.w3.org/2000/svg">
<path d="M607 328.512V328.792L583.782 429.544C582.53 435.246 576.828 439.436 570.263 439.436H542.208C541.199 439.439 540.218 439.766 539.409 440.368C538.601 440.971 538.007 441.818 537.715 442.783C511.842 530.555 476.811 590.898 430.549 627.116C391.199 657.957 342.692 672.319 277.878 672.319C219.652 672.319 180.388 653.595 147.085 616.642C103.091 567.745 84.9059 487.792 95.9206 391.425C115.769 210.504 209.609 27.9418 390.292 27.9418C445.257 27.445 488.409 44.3989 518.429 78.2635C550.177 114.05 566.289 167.979 566.375 238.537C566.296 241.631 565.013 244.572 562.798 246.734C560.584 248.896 557.613 250.109 554.518 250.113H422.127C419.807 250.042 417.602 249.084 415.967 247.437C414.332 245.79 413.391 243.579 413.336 241.259C412.257 192.47 397.786 168.692 369.019 168.692C318.265 168.692 288.331 237.587 272.457 275.793C250.277 329.138 238.981 387.062 241.206 444.77C242.264 471.637 246.583 509.432 272.09 525.069C294.702 538.956 326.969 529.756 346.514 514.378C366.038 499.023 381.761 472.436 388.37 448.182C389.299 444.813 389.363 442.2 388.478 441.012C387.549 439.824 384.979 439.544 383.014 439.544H349.02C347.22 439.549 345.441 439.162 343.807 438.408C342.173 437.655 340.724 436.553 339.56 435.181C338.667 434.11 338.033 432.847 337.707 431.491C337.381 430.135 337.372 428.723 337.681 427.363L360.92 326.417C362.064 321.233 366.751 317.346 372.517 316.633V316.396H595.618C596.136 316.396 596.676 316.396 597.173 316.504C602.961 317.238 607.043 322.637 606.935 328.512H607Z" fill="#0AE448"/>
</svg>
