<svg width="800" height="800" viewBox="0 0 800 800" fill="none" xmlns="http://www.w3.org/2000/svg">
<path d="M400 50C206.953 50 50 206.953 50 400C50 593.047 206.953 750 400 750C593.047 750 750 593.047 750 400C750 206.953 593.047 50 400 50Z" fill="#FDDD4C"/>
<path d="M246.721 491.255C239.068 479.668 258.318 462.133 250.488 447.408C245.974 438.918 238.597 433.625 229.738 432.515C221.235 431.448 212.476 434.56 206.893 440.643C198.079 450.235 196.708 463.293 198.413 467.913C199.037 469.605 200.018 470.068 200.72 470.168C205.521 470.8 208.222 458.478 209.88 455.91C214.463 448.838 224.869 446.698 232.056 451.345C245.683 460.16 233.867 474.405 234.886 486.435C235.878 498.15 243.177 502.86 249.73 503.355C256.105 503.595 260.563 500.055 261.688 497.47C264.385 491.298 253.018 500.788 246.721 491.255Z" fill="black"/>
<path d="M531.442 384.895C527.867 384.402 523.962 384.412 519.897 384.895C516.812 381.002 514.047 374.697 512.487 367.34C509.712 354.25 510.002 344.767 517.747 343.535C525.492 342.305 529.235 350.225 532.01 363.315C533.872 372.115 533.515 380.2 531.442 384.895Z" fill="black"/>
<path d="M446.615 392.685C446.923 395.647 447.03 398.647 446.943 401.41C454.438 401.85 459.745 405.407 461.158 407.667C461.883 408.832 461.593 409.592 461.36 409.942C460.583 411.15 458.92 410.965 455.438 410.572C452.395 410.232 449.12 409.932 445.715 410.087C443.863 415.77 438.37 416.302 434.51 412.1C431.815 412.92 426.52 416.302 424.94 412.627C424.928 410.805 426.835 408.152 430.288 405.812C427.93 401.315 426.35 396.502 425.418 391.517C420.523 392.4 416.118 393.77 412.665 394.845C411.045 395.35 404.633 398.247 403.88 394.982C403.378 392.727 406.888 389.01 410.6 386.325C414.745 383.382 419.345 381.29 424.115 380.082C424.013 372.982 425.823 368.027 430.983 367.207C437.378 366.19 441.343 371.115 444.085 380.232C451.815 382.38 459.535 387.705 462.943 393.21C464.268 395.345 464.525 396.995 463.665 397.865C461.523 400.085 449.655 393.647 446.615 392.685Z" fill="black"/>
<path d="M497.443 424.595C502.346 426.97 507.741 426.035 509.501 422.505C511.261 418.973 508.711 414.188 503.806 411.813C498.903 409.438 493.511 410.373 491.748 413.903C489.988 417.433 492.541 422.218 497.443 424.595Z" fill="black"/>
<path d="M521.58 407.06C521.668 401.66 524.978 397.347 528.958 397.412C532.935 397.49 536.088 401.912 536 407.302C535.91 412.692 532.6 417.005 528.623 416.937C524.643 416.872 521.49 412.45 521.58 407.06Z" fill="black"/>
<path fill-rule="evenodd" clip-rule="evenodd" d="M629.463 473.202C629.54 473.48 629.43 473.09 629.463 473.202C637.453 473.202 650 482.267 650 504.167C650 525.96 640.84 550.642 638.678 556.122C605.683 634.177 526.93 677.627 433.12 674.877C345.665 672.315 271.08 626.762 238.441 552.502C218.705 552.525 198.357 543.955 182.889 530.425C166.586 516.17 156.534 497.722 154.573 478.482C153.046 463.502 154.907 449.565 159.666 437.41L141.334 422.075C57.4443 352.16 319.823 64.2912 403.735 136.539C404.158 136.902 432.285 164.138 432.353 164.204C472.813 147.246 581.223 114.96 581.343 190.12C581.388 215.079 565.275 244.184 539.455 270.595C569.295 297.91 561.425 336.712 566.178 372.312L576.54 375.15C596.298 380.617 610.35 387.91 617.228 395.037C624.103 402.155 627.513 409.052 628.75 417.137C629.908 423.66 629.753 435.177 621.038 448.057C624.175 456.367 627.04 464.652 629.463 473.202ZM236.959 532.252C239.889 532.317 242.798 532.13 245.651 531.647C276.308 526.487 284.33 493.62 279.283 461.345C273.578 424.902 248.604 412.055 231.654 411.142C226.94 410.9 222.561 411.317 218.95 412.032C188.695 418.05 171.612 443.46 174.977 476.46C178.019 506.325 208.62 531.502 236.959 532.252ZM168.436 420.987C178.588 406.435 195.181 395.907 214.014 392.287C237.984 328.775 278.013 270.255 330.99 229.983C370.305 197.611 412.705 174.39 412.705 174.39C412.705 174.39 389.873 148.254 382.975 146.329C340.55 135.021 248.927 197.391 190.422 279.802C166.753 313.142 132.865 372.19 149.068 402.562C151.063 406.325 162.374 415.992 168.436 420.987ZM512.388 517.665C512.453 518.347 512.03 519.052 511.418 519.305C511.418 519.305 477.328 534.957 423.18 518.425C425.128 534.655 444.81 540.805 458.563 543.032C525.658 554.427 588.388 516.555 602.505 507.017C604.93 505.38 602.475 509.59 602.038 510.207C584.753 532.217 538.285 557.705 477.83 557.695C451.463 557.682 425.11 548.52 415.435 534.43C400.425 512.572 414.69 480.662 439.708 483.982C481.995 488.697 525.348 485.155 564.495 467.22C598.628 451.577 611.52 434.375 609.583 420.437C606.575 398.837 574.553 395.46 558.365 390.21C551.323 387.91 547.845 386.072 547.055 372.995C546.71 367.285 545.705 347.365 545.338 339.125C544.693 324.705 542.93 304.982 530.54 296.842C527.308 294.717 523.72 293.695 519.943 293.497C516.93 293.352 515.143 293.767 514.183 293.99C513.968 294.04 513.793 294.08 513.658 294.102C506.965 295.225 502.865 298.61 498.03 302.602C497.753 302.832 497.47 303.065 497.188 303.297C481.73 316.015 468.68 318.092 454.16 317.477C449.638 317.287 444.978 316.837 440.06 316.36C435.538 315.922 430.8 315.462 425.755 315.167L419.593 314.815C395.278 313.582 369.2 334.307 364.865 363.742C360.023 396.6 378.388 416.725 390.33 429.812C393.283 433.047 395.843 435.85 397.563 438.312C398.665 439.797 399.948 441.887 399.948 443.877C399.948 446.255 398.385 448.135 396.86 449.74C372.053 474.92 364.12 514.927 373.47 548.267C374.64 552.425 376.12 556.408 377.87 560.213C399.803 610.803 467.845 634.365 534.305 612.935C580.885 597.918 622.04 561.625 630.42 511.56C632.415 498.515 629.485 493.477 625.495 491.045C621.273 488.482 616.213 489.372 616.213 489.372C616.213 489.372 613.905 473.787 607.375 459.62C587.998 474.71 563.058 485.315 544.068 490.693C513.645 499.31 480.78 502.662 449.343 498.6C436.59 496.952 428.023 495.845 424.35 507.622C466.285 522.78 510.67 516.29 510.67 516.29C511.528 516.202 512.298 516.817 512.388 517.665ZM391.4 223.515C368.465 235.098 342.858 255.722 322.063 279.45C321.328 280.297 322.42 281.462 323.323 280.815C341.285 267.912 365.913 255.922 398.175 248.155C434.313 239.454 469.105 243.106 490.355 247.913C491.425 248.155 492.093 246.34 491.148 245.812C477.105 238.035 455.553 232.755 440.265 232.645C439.518 232.634 439.095 231.776 439.54 231.182C442.18 227.673 445.803 224.208 449.113 221.7C449.848 221.128 449.403 219.952 448.465 220.006C429.448 221.159 386.005 240.967 386.163 240.246C387.275 234.966 390.785 227.992 392.603 224.736C393.038 223.966 392.19 223.119 391.4 223.515Z" fill="black"/>
</svg>
