<svg width="800" height="800" viewBox="0 0 800 800" fill="none" xmlns="http://www.w3.org/2000/svg">
<path d="M377.077 50.1884C375.572 50.3252 370.782 50.8041 366.471 51.1462C267.048 60.1087 173.92 113.747 114.936 196.188C82.0919 242.027 61.085 294.024 53.1476 349.099C50.3421 368.323 50 374.002 50 400.069C50 426.135 50.3421 431.814 53.1476 451.039C72.1701 582.466 165.709 692.89 292.571 733.802C315.288 741.123 339.238 746.117 366.471 749.128C377.077 750.291 422.923 750.291 433.529 749.128C480.538 743.928 520.362 732.297 559.638 712.251C565.66 709.173 566.823 708.352 566.002 707.668C565.455 707.257 539.795 672.844 509.003 631.247L453.03 555.647L382.893 451.86C344.301 394.8 312.551 348.141 312.278 348.141C312.004 348.072 311.73 394.185 311.593 450.491C311.388 549.079 311.32 553.047 310.088 555.373C308.309 558.726 306.94 560.094 304.066 561.599C301.877 562.694 299.961 562.899 289.629 562.899H277.791L274.643 560.915C272.59 559.615 271.085 557.905 270.059 555.92L268.622 552.842L268.759 415.667L268.964 278.425L271.085 275.756C272.18 274.32 274.506 272.472 276.149 271.583C278.954 270.215 280.049 270.078 291.887 270.078C305.846 270.078 308.172 270.625 311.799 274.593C312.825 275.688 350.802 332.884 396.237 401.779C441.672 470.674 503.803 564.746 534.321 610.927L589.746 694.874L592.551 693.026C617.39 676.88 643.666 653.892 664.467 629.947C708.739 579.114 737.273 517.129 746.852 451.039C749.658 431.814 750 426.135 750 400.069C750 374.002 749.658 368.323 746.852 349.099C727.83 217.671 634.291 107.247 507.429 66.3346C485.054 59.0825 461.241 54.0881 434.555 51.0778C427.986 50.3936 382.757 49.641 377.077 50.1884ZM520.362 261.868C523.646 263.51 526.315 266.657 527.273 269.941C527.82 271.72 527.957 309.759 527.82 395.485L527.615 518.497L505.924 485.247L484.164 451.996V362.576C484.164 304.765 484.438 272.267 484.848 270.694C485.943 266.862 488.338 263.852 491.623 262.073C494.428 260.636 495.455 260.5 506.197 260.5C516.325 260.5 518.104 260.636 520.362 261.868Z" fill="white"/>
</svg>
