<svg width="800" height="800" viewBox="0 0 800 800" fill="none" xmlns="http://www.w3.org/2000/svg">
<path d="M626.046 50H173.962C105.502 50 50.0039 106.921 50.0039 177.137V622.863C50.0039 693.079 105.502 750 173.962 750H626.046C694.506 750 750.004 693.079 750.004 622.863V177.137C750.004 106.921 694.506 50 626.046 50Z" fill="#001E36"/>
<path d="M207.623 540.884V233.126C207.623 230.883 208.563 229.755 210.441 229.755C215.444 229.755 220.013 229.68 226.903 229.514C233.786 229.356 241.221 229.196 249.208 229.033C257.192 228.874 265.645 228.713 274.566 228.551C283.487 228.393 292.331 228.312 301.097 228.31C324.885 228.31 344.92 231.36 361.203 237.461C375.892 242.557 389.287 250.948 400.415 262.023C409.847 271.623 417.136 283.208 421.78 295.978C426.173 308.406 428.399 321.529 428.355 334.749C428.355 360.44 422.563 381.632 410.98 398.323C399.321 415.083 382.931 427.774 364.022 434.686C344.299 442.234 322.382 444.793 298.28 444.793C291.39 444.793 286.538 444.713 283.722 444.552C280.905 444.394 276.68 444.314 271.045 444.311V540.402C271.127 540.991 271.074 541.592 270.89 542.156C270.707 542.72 270.398 543.233 269.988 543.653C269.577 544.074 269.078 544.391 268.527 544.579C267.977 544.767 267.392 544.821 266.818 544.737H210.91C208.717 544.737 207.623 543.457 207.623 540.884ZM271.044 287.549V387.927C275.109 388.251 278.865 388.411 282.314 388.409H297.81C309.212 388.37 320.539 386.516 331.386 382.912C340.689 380.077 349.002 374.56 355.334 367.018C361.438 359.636 364.491 349.361 364.492 336.194C364.739 326.878 362.376 317.684 357.681 309.704C352.747 301.988 345.614 296.018 337.255 292.607C326.34 288.255 314.68 286.208 302.975 286.587C295.461 286.587 288.809 286.667 283.019 286.827C277.222 286.993 273.231 287.234 271.044 287.549Z" fill="#31A8FF"/>
<path d="M609.916 369.676C601.091 365.025 591.692 361.623 581.975 359.562C571.269 357.042 560.324 355.75 549.339 355.708C543.398 355.543 537.465 356.273 531.73 357.876C528.08 358.71 524.835 360.843 522.572 363.896C521.042 366.339 520.227 369.18 520.225 372.084C520.311 374.901 521.301 377.61 523.042 379.79C525.785 383.08 529.137 385.781 532.903 387.736C539.599 391.434 546.497 394.731 553.565 397.61C569.325 403.021 584.384 410.379 598.41 419.524C607.965 425.709 615.872 434.232 621.42 444.327C626.085 453.887 628.422 464.463 628.229 475.152C628.51 489.265 624.578 503.129 616.96 514.885C608.803 526.82 597.474 536.098 584.322 541.615C570.074 548.035 552.465 551.246 531.495 551.248C518.173 551.386 504.875 550.095 491.815 547.395C481.526 545.46 471.51 542.224 461.996 537.762C460.97 537.219 460.115 536.386 459.533 535.363C458.951 534.339 458.665 533.167 458.709 531.983V479.967C458.653 479.458 458.732 478.943 458.939 478.476C459.146 478.01 459.473 477.61 459.884 477.319C460.287 477.085 460.75 476.982 461.212 477.026C461.673 477.069 462.111 477.255 462.466 477.56C473.701 484.354 485.9 489.31 498.624 492.249C509.839 495.132 521.343 496.667 532.903 496.824C543.858 496.824 551.919 495.379 557.087 492.49C559.42 491.394 561.394 489.628 562.77 487.406C564.145 485.183 564.863 482.6 564.836 479.967C564.836 475.799 562.488 471.785 557.792 467.927C553.096 464.074 543.548 459.418 529.146 453.96C514.402 448.696 500.422 441.405 487.588 432.287C478.409 425.739 470.851 417.08 465.518 407.001C460.9 397.511 458.565 387.024 458.709 376.418C458.683 363.675 462.096 351.173 468.57 340.297C475.952 328.319 486.552 318.786 499.094 312.844C512.866 305.785 530.084 302.253 550.748 302.248C562.85 302.149 574.941 303.034 586.906 304.897C595.571 306.024 604.042 308.374 612.079 311.881C612.716 312.068 613.303 312.405 613.791 312.865C614.28 313.325 614.658 313.895 614.896 314.53C615.213 315.706 615.371 316.921 615.366 318.142V366.786C615.398 367.352 615.285 367.917 615.038 368.424C614.791 368.931 614.418 369.363 613.957 369.676C613.329 369.996 612.638 370.163 611.937 370.163C611.235 370.163 610.544 369.996 609.916 369.676Z" fill="#31A8FF"/>
</svg>
