<svg width="800" height="800" viewBox="0 0 800 800" fill="none" xmlns="http://www.w3.org/2000/svg">
<path d="M466.972 399.397C466.972 363.537 436.99 334.462 400 334.462C363.015 334.462 333.027 363.537 333.027 399.397C333.027 435.262 363.015 464.335 400 464.335C436.99 464.335 466.972 435.262 466.972 399.397Z" fill="#53C1DE"/>
<path fill-rule="evenodd" clip-rule="evenodd" d="M603.009 287.253C616.209 235.245 632.801 138.801 574.309 106.104C516.09 73.5488 440.329 135.93 400.324 173.374C360.436 136.303 282.547 74.1886 224.105 106.99C165.909 139.654 183.855 234.499 197.348 286.833C143.061 301.783 50 333.983 50 399.771C50 465.373 142.964 500.405 196.93 515.341C183.387 567.965 166.339 661.454 224.61 694.046C283.27 726.841 360.917 666.205 401.293 628.351C441.554 666.016 516.587 727.049 574.818 694.366C633.231 661.58 618.017 566.429 604.524 513.792C656.837 498.823 750 464.554 750 399.771C750 334.615 656.44 302.154 603.009 287.253ZM596.378 485.897C587.518 458.704 575.56 429.787 560.932 399.916C574.895 370.749 586.389 342.205 595.001 315.188C634.171 326.199 720.098 351.364 720.098 399.771C720.098 448.633 637.641 474.036 596.378 485.897ZM559.833 669.273C516.387 693.657 451.849 635.291 422.115 607.554C441.841 586.636 461.553 562.318 480.792 535.314C514.634 532.405 546.603 527.645 575.597 521.146C585.094 558.379 603.471 644.78 559.833 669.273ZM239.551 668.926C196.1 644.633 215.96 561.207 225.923 522.444C254.595 528.594 286.334 533.018 320.256 535.685C339.62 562.108 359.904 586.396 380.344 607.666C355.09 631.352 283.205 693.33 239.551 668.926ZM79.9014 399.771C79.9014 350.727 165.315 325.744 205.378 314.761C214.139 342.385 225.629 371.269 239.495 400.478C225.449 430.121 213.795 459.462 204.953 487.413C166.753 476.811 79.9014 448.846 79.9014 399.771ZM239.086 132.083C282.715 107.597 350.41 167.229 379.371 194.07C359.036 215.243 338.939 239.347 319.74 265.618C286.819 268.577 255.304 273.328 226.332 279.693C215.462 237.483 195.505 156.542 239.086 132.083ZM502.184 297.132C524.518 299.865 545.917 303.5 566.01 307.947C559.978 326.693 552.46 346.296 543.605 366.39C530.769 342.777 516.991 319.637 502.184 297.132ZM400.334 214.789C414.126 229.276 427.939 245.454 441.529 263.005C413.965 261.74 386.357 261.736 358.793 262.986C372.394 245.598 386.327 229.444 400.334 214.789ZM256.652 366.369C247.943 346.345 240.493 326.656 234.408 307.642C254.381 303.309 275.68 299.767 297.87 297.079C283.021 319.535 269.266 342.665 256.652 366.369ZM298.507 504.533C275.584 502.053 253.963 498.69 233.996 494.476C240.177 475.128 247.792 455.015 256.686 434.559C269.473 458.51 283.438 481.865 298.507 504.533ZM401.162 586.802C386.989 571.973 372.852 555.572 359.045 537.932C386.765 538.987 414.539 538.989 442.257 537.79C428.625 555.752 414.861 572.176 401.162 586.802ZM543.89 433.518C553.246 454.196 561.133 474.2 567.398 493.221C547.1 497.713 525.188 501.329 502.1 504.015C517.017 481.083 531.014 457.584 543.89 433.518ZM464.104 507.529C421.702 510.467 379.037 510.434 336.622 507.769C312.521 473.635 291.066 437.737 272.546 400.469C290.977 363.278 312.276 327.449 336.263 293.369C378.708 290.258 421.415 290.249 463.861 293.387C487.642 327.466 508.908 363.201 527.766 400.056C509.132 437.228 487.722 473.129 464.104 507.529ZM559.374 131.221C603.014 155.626 583.589 242.303 574.055 279.994C545.014 273.496 513.477 268.661 480.46 265.656C461.224 239.101 441.295 214.954 421.289 194.055C450.622 166.636 516.156 107.054 559.374 131.221Z" fill="#53C1DE"/>
</svg>
