<svg width="800" height="800" viewBox="0 0 800 800" fill="none" xmlns="http://www.w3.org/2000/svg">
<path d="M114 135.121C114 155.606 130.822 172.242 151.522 172.242H462.703C498.16 172.242 527.372 183.063 550.338 204.707C573.254 226.375 584.737 254.209 584.737 288.26C584.737 319.718 573.254 345.489 550.313 365.572C527.372 385.202 498.185 394.967 462.703 394.967H327.472C306.722 394.967 289.925 411.577 289.925 432.087C289.925 452.598 306.722 469.208 327.472 469.208H476.805L611.33 682.672C619.691 695.557 631.401 702 646.535 702C663.231 702 674.966 695.557 681.741 682.672C688.515 669.258 687.205 655.089 677.837 640.14L558.145 449.88C590.479 435.435 616.039 414.295 634.8 386.46C653.586 358.097 662.98 325.381 662.98 288.26C662.98 250.611 654.367 217.617 637.142 189.254C620.471 160.891 597.001 138.72 566.757 122.739C536.488 106.229 501.836 98 462.703 98H151.547C130.822 98 114 114.61 114 135.121Z" fill="white"/>
</svg>
