<svg width="800" height="800" viewBox="0 0 800 800" fill="none" xmlns="http://www.w3.org/2000/svg">
<path d="M225 342.5C248.333 249.167 306.667 202.5 400 202.5C540 202.5 557.5 307.5 627.5 325C674.167 336.667 715 319.167 750 272.5C726.667 365.833 668.333 412.5 575 412.5C435 412.5 417.5 307.5 347.5 290C300.833 278.333 260 295.833 225 342.5ZM50 552.5C73.3333 459.167 131.667 412.5 225 412.5C365 412.5 382.5 517.5 452.5 535C499.167 546.667 540 529.167 575 482.5C551.667 575.833 493.333 622.5 400 622.5C260 622.5 242.5 517.5 172.5 500C125.833 488.333 85 505.833 50 552.5Z" fill="#44A8B3"/>
</svg>
