<svg width="800" height="800" viewBox="0 0 800 800" fill="none" xmlns="http://www.w3.org/2000/svg">
<path d="M50 400V750H400H750V400V50H400H50V400Z" fill="#007ACC"/>
<path d="M204.798 402.322L204.576 430.989L250.131 430.989H295.687V560.433V689.877H327.909H360.131V560.433V430.989H405.687H451.242V402.877C451.242 387.322 450.909 374.322 450.464 373.989C450.131 373.544 394.687 373.322 327.464 373.433L205.131 373.766L204.798 402.322Z" fill="white"/>
<path d="M614.832 372.953C632.61 377.397 646.165 385.286 658.61 398.175C665.054 405.064 674.61 417.619 675.387 420.619C675.61 421.508 645.165 441.953 626.721 453.397C626.054 453.842 623.387 450.953 620.387 446.508C611.387 433.397 601.943 427.73 587.498 426.73C566.276 425.286 552.61 436.397 552.721 454.953C552.721 460.397 553.498 463.619 555.721 468.064C560.387 477.73 569.054 483.508 596.276 495.286C646.387 516.842 667.832 531.064 681.165 551.286C696.054 573.841 699.387 609.842 689.276 636.619C678.165 665.73 650.61 685.508 611.832 692.064C599.832 694.175 571.387 693.842 558.498 691.508C530.387 686.508 503.721 672.619 487.276 654.397C480.832 647.286 468.276 628.73 469.054 627.397C469.387 626.953 472.276 625.175 475.499 623.286C478.61 621.508 490.387 614.73 501.499 608.286L521.61 596.619L525.832 602.841C531.721 611.841 544.61 624.175 552.387 628.286C574.721 640.064 605.387 638.397 620.498 624.841C626.943 618.953 629.61 612.842 629.61 603.842C629.61 595.73 628.61 592.175 624.387 586.064C618.943 578.286 607.832 571.73 576.276 558.064C540.165 542.508 524.61 532.842 510.387 517.508C502.165 508.619 494.387 494.397 491.165 482.508C488.499 472.619 487.832 447.842 489.943 437.842C497.387 402.953 523.721 378.619 561.721 371.397C574.054 369.064 602.721 369.953 614.832 372.953Z" fill="white"/>
</svg>
