<svg width="800" height="800" viewBox="0 0 800 800" fill="none" xmlns="http://www.w3.org/2000/svg">
<path d="M400 750C593.3 750 750 593.3 750 400C750 206.7 593.3 50 400 50C206.7 50 50 206.7 50 400C50 593.3 206.7 750 400 750Z" fill="#4353FF"/>
<path d="M312.164 386.406C312.164 377.508 303.516 368.062 288.539 368.062C271.727 368.062 253.258 380.398 250.437 405C247.555 429.852 263.016 440.898 278.562 440.898C294.109 440.898 302.305 434.82 310.656 426.727C303.477 417.703 294.25 421.883 292.43 422.82C289.489 424.456 286.16 425.266 282.797 425.164C276.781 425.164 270.648 422.461 270.648 411.234C309.219 407.391 312.164 395.312 312.164 386.406ZM293.078 387.875C292.836 390.633 291.727 395.359 272.219 398.031C276.328 383.43 284.188 382.32 287.805 382.32C288.531 382.29 289.254 382.416 289.928 382.689C290.601 382.962 291.208 383.376 291.708 383.903C292.208 384.429 292.59 385.057 292.828 385.744C293.065 386.43 293.153 387.159 293.086 387.883L293.078 387.875ZM227.789 390.266C227.789 390.266 219.508 416.281 218.828 418.391C218.594 416.227 212.5 369.531 212.5 369.531C198.391 369.531 190.844 379.594 186.852 390.211C186.852 390.211 176.789 416.289 175.914 418.5C175.852 416.477 174.352 390.523 174.352 390.523C173.492 377.516 161.586 369.602 151.953 369.602L163.609 440.352C178.398 440.289 186.375 430.289 190.547 419.672C190.547 419.672 199.445 396.664 199.812 395.617C199.875 396.602 206.195 440.352 206.195 440.352C221.039 440.352 229.023 430.977 233.313 420.719L254.109 369.609C239.516 369.594 231.781 379.602 227.797 390.273L227.789 390.266ZM366.648 367.969C357.508 367.969 350.508 372.937 344.617 380.242V380.18L349.891 337.656C337.742 337.656 327.859 348.211 325.961 363.914L316.758 439.813C323.789 439.813 331.18 437.789 335.164 432.633C337.1 435.257 339.637 437.379 342.562 438.82C345.488 440.261 348.716 440.979 351.977 440.914C372.469 440.914 386.523 417.109 386.523 394.773C386.406 374.383 376.562 367.969 366.648 367.969ZM364.75 404.477C362.602 416.93 355.672 425.398 348.984 425.398C342.297 425.398 339.352 422.391 339.352 422.391C340.641 411.453 341.437 404.781 343.891 399.016C346.344 393.25 352.172 384.047 358.25 384.047C364.195 384.016 366.898 391.93 364.75 404.445V404.477ZM437.703 369.625H423.438L423.5 368.891C424.484 359.562 426.688 354.656 433.992 353.859C438.961 353.367 441.172 350.789 441.727 347.969C442.156 345.758 443.508 338.094 443.508 338.094C414.789 337.906 405.773 350.305 403.438 369.203L403.375 369.633H403.07C398.383 369.633 393.25 374.906 392.391 381.602L392.086 384.055H401.656L393.617 450.461L391.164 462.367C391.469 462.367 391.836 462.43 392.148 462.43C405.586 461.937 414.18 451.32 416.078 435.922L422.328 384.07H426.805C431.219 384.07 436.375 379.656 437.297 372.289L437.703 369.625ZM512.07 368.398C495.563 368.398 479.977 380.547 475.195 399.648C470.414 418.75 477.648 441.312 501.945 441.312C526.242 441.312 540.172 417.812 540.172 398.242C540.172 378.742 526.984 368.367 512.07 368.367V368.398ZM518.758 403.867C517.898 412.516 514.07 425.648 503.664 425.648C493.258 425.648 494.641 410.313 495.687 402.992C496.789 395.18 501.156 384.094 510.531 384.094C518.945 384.078 519.742 394.078 518.75 403.836L518.758 403.867ZM621.719 390.273C621.719 390.273 613.438 416.289 612.758 418.398C612.516 416.187 606.437 369.492 606.437 369.492C592.328 369.492 584.781 379.555 580.789 390.172C580.789 390.172 570.727 416.25 569.852 418.461C569.789 416.437 568.289 390.484 568.289 390.484C567.43 377.477 555.523 369.562 545.891 369.562L557.484 440.312C572.273 440.25 580.25 430.25 584.422 419.633C584.422 419.633 593.32 396.625 593.625 395.578C593.75 396.562 600.008 440.312 600.008 440.312C614.852 440.312 622.836 430.937 627.125 420.68L647.922 369.57C633.375 369.594 625.648 379.602 621.719 390.273ZM451.203 338.055L439.18 435.07L436.719 447.031C437.023 447.031 437.391 447.094 437.703 447.094C450.648 446.906 459.852 435.555 461.57 421.258L468.508 365.625C470.594 348.609 460.469 338.055 451.203 338.055Z" fill="white"/>
</svg>
